<?xml version="1.0" encoding="utf-8"?>
<!-- Generator: Adobe Illustrator 23.1.1, SVG Export Plug-In . SVG Version: 6.00 Build 0)  -->
<svg version="1.1" id="Layer_1" xmlns="http://www.w3.org/2000/svg" xmlns:xlink="http://www.w3.org/1999/xlink" x="0px" y="0px"
	 viewBox="0 0 188 19.3" style="enable-background:new 0 0 188 19.3;" xml:space="preserve">
<style type="text/css">
	.st0{fill:#3B332E;stroke:#3B332E;stroke-width:0.2736;}
	.st1{enable-background:new    ;}
	.st2{fill:#3B332E;}
	.st3{fill:none;stroke:#3B332E;stroke-width:0.2723;}
	.st4{fill:none;}
	.st5{fill:none;stroke:#3B332E;stroke-width:0.4085;}
	.st6{fill:#65433D;}
</style>
<g class="st1">
	<path class="st6" d="M4.7,3.2C5,2.8,5.3,2.4,5.8,2.4c0.3,0,0.4,0.2,0.4,0.5c0,0.2-1.3,1.8-1.6,2.4C4,6.9,3.8,8.4,3.8,10.1
		c0,1.4,0.1,2.9,0.7,4.3c0.2,0.5,0.6,1.1,1,1.5c0.1,0.1,0.6,0.6,0.7,0.7c0.3,0.2,0.7,0.2,0.7,0.7c0,0.3-0.4,0.2-0.5,0.2
		c-0.6,0-1-0.5-1.4-0.9c-1.7-1.9-2-4.6-2-7C2.8,7.5,3.3,4.9,4.7,3.2z"/>
	<path class="st6" d="M9.2,17.5c0,0-0.2-9.7-0.2-11c0-0.4-0.2-3.2-0.2-3.6V2.8c0-0.1,0-0.2,0.1-0.3c0.1,0,0.3,0,0.4,0
		c0.3,0,0.5,0,0.6,0.4C9.9,3.6,9.9,4,9.9,4.8c0.1,3.8,0.1,7.7,0.4,11.6h0.1c0.8,0,1.5-0.3,2.3-0.3c0.3,0,0.6,0.1,0.6,0.5
		c0,0.2-0.1,0.4-0.4,0.4L9.2,17.5z"/>
	<path class="st6" d="M16.5,2.5c3.4,0.4,2.9,8.4,2.7,10.9c-0.1,1.4-0.8,3.8-2.7,3.8c-3.3,0-3.5-5.7-3.5-7.9
		C13,6.9,13.2,2.5,16.5,2.5z M14.1,9.2c0,5.5,1,7,2.3,7c1.8,0,1.9-4.8,1.9-5.9v-0.1c0-1.4-0.4-6.7-2.2-6.7c-1.4,0-2,3.1-2,4.1
		C14.1,8.2,14.1,8.7,14.1,9.2z"/>
	<path class="st6" d="M25.9,3.4c0,0.7-1.1,0.5-1.4,0.5h-0.1c-1.8,0-2.6,3.8-2.6,5.9c0,2.4,0.1,4.1,1.8,5.5c0.8,0.7,2,0,2.3,0.5
		c0.4,0.7-0.3,0.9-0.9,0.9c-4.3-0.1-4.9-5.7-4-9.4c0.4-2,1.6-4.6,4-4.6C25.4,2.7,25.9,3,25.9,3.4z"/>
	<path class="st6" d="M29.2,13.6l-0.1,0.1l-0.3,2.1c0,0.3,0,1.1-0.6,1.1c-0.2,0-0.4-0.5-0.4-0.7c2-13.6,2-13.6,2-13.6
		c0.1-0.4,0.2-0.9,0.7-0.9c0.2,0,0.5,0.1,0.6,0.3l0.2,0.4c1.1,4.3,1.6,8.7,2.1,13.1l0.1,1.2c0,0,0,0,0,0c-0.1,0.4-0.2,0.5-0.6,0.5
		h-0.1c-0.1,0-0.3,0-0.3-0.1L32,13.6H29.2z M29.5,12.4l2.3,0.1l-1.3-8.8L29.5,12.4z"/>
	<path class="st6" d="M35.2,17.5c0,0-0.2-9.7-0.2-11c0-0.4-0.2-3.2-0.2-3.6V2.8c0-0.1,0-0.2,0.1-0.3c0.1,0,0.3,0,0.4,0
		c0.3,0,0.5,0,0.6,0.4c0.2,0.7,0.1,1.2,0.1,1.9c0.1,3.8,0.1,7.7,0.4,11.6h0.1c0.8,0,1.5-0.3,2.3-0.3c0.3,0,0.6,0.1,0.6,0.5
		c0,0.2-0.1,0.4-0.4,0.4L35.2,17.5z"/>
	<path class="st6" d="M41.1,17.5c0,0-0.2-9.7-0.2-11c0-0.4-0.2-3.2-0.2-3.6V2.8c0-0.1,0-0.2,0.1-0.3c0.1,0,0.3,0,0.4,0
		c0.3,0,0.5,0,0.6,0.4c0.2,0.7,0.1,1.2,0.1,1.9c0.1,3.8,0.1,7.7,0.4,11.6h0.1c0.8,0,1.5-0.3,2.3-0.3c0.3,0,0.6,0.1,0.6,0.5
		c0,0.2-0.1,0.4-0.4,0.4L41.1,17.5z"/>
	<path class="st6" d="M46.9,17.5c0.1-1.4,0.3-6.3,0.3-7l-1.6-4.3C45.5,6,45,4.6,45,4.4c-0.1-0.2-0.1-0.3-0.1-0.5
		c0-0.2,0.2-0.3,0.5-0.3c0.3,0,0.6,0.1,0.8,0.4c0.6,1.7,1,3.6,1.7,5.2c0.2-0.1,2-4.3,1.9-4.4c0.2-0.4,0.2-1.1,0.8-1.1
		c0.3,0,0.6,0.1,0.6,0.4v0.1c-0.8,2.1-2.2,4.1-2.7,6.3L48,17.7c0,0.3-0.3,0.4-0.6,0.3h0c-0.2,0-0.4,0-0.4-0.3
		C46.9,17.7,46.9,17.6,46.9,17.5z"/>
	<path class="st6" d="M59.4,14.1c0.8,0.2,0,1.9,1,2.4h0.1c1,0,1.4-1.4,1.4-2.2c0-1-0.1-2.1-0.5-3.1c-0.9-2-2.8-3.7-2.8-6
		c0-1.1,0.6-2.8,1.9-2.8c0.8,0,2.2,0.7,2.2,1.6c0,0.4-0.1,0.6-0.5,0.6c-0.7,0-0.5-1.1-1.5-1.1c-1,0-1,1.3-1,2c0,1.9,1.6,3.2,2.4,4.8
		c0.8,1.4,1.2,3.5,0.7,5c-0.3,1-1.1,2.3-2.3,2.3c-1.4,0-1.8-1.7-1.8-2.9C58.7,14.3,59.1,14,59.4,14.1z"/>
	<path class="st6" d="M67.7,2.5c3.4,0.4,2.9,8.4,2.7,10.9c-0.1,1.4-0.8,3.8-2.7,3.8c-3.3,0-3.5-5.7-3.5-7.9
		C64.2,6.9,64.3,2.5,67.7,2.5z M65.2,9.2c0,5.5,1,7,2.3,7c1.8,0,1.9-4.8,1.9-5.9v-0.1c0-1.4-0.4-6.7-2.2-6.7c-1.4,0-2,3.1-2,4.1
		C65.2,8.2,65.2,8.7,65.2,9.2z"/>
	<path class="st6" d="M75.2,16.5c-0.1,0-0.3,0-0.4,0c-2.3-0.3-2.5-6-2.7-12.5l0-0.9V2.9c0-0.4,1-0.4,1.1,0
		c0.3,0.5-0.5,12.8,2.1,12.8c0.7,0,0.9-1.1,0.9-1.6c0.1-2.3,0-7.6-0.1-11.2c0.1-0.3,0.2-0.3,0.5-0.3c0.3,0,0.6,0.1,0.6,0.4
		c0.1,3.3-0.1,6.6,0,10.1C77.2,14.7,77.2,16.5,75.2,16.5z"/>
	<path class="st6" d="M79.1,16c0-4.2,0.2-8.5,0.3-12.7c0-0.9,0.4-0.9,1.1-0.9h0.2c1.7,0,2.8,1.1,2.8,2.8v0.2c0,1.4-0.4,3-1.6,3.8
		c0.1,0.1,0.5,0.6,0.6,0.7c0.8,1.1,0.6,3.8,0.7,5.1c0,0.1,0.1,1,0.1,1.1v0.2c0,0.3-0.3,0.4-0.5,0.4h0c-0.2,0-0.5,0-0.5-0.3
		c0-0.6-0.2-3.5-0.2-4.1c-0.1-0.9-0.3-2.2-1.4-2.2h-0.3c0,0.2-0.1,0.9-0.1,1.1c0,0.2-0.1,4.3-0.1,5.9c0,0.4,0.1,0.8-0.4,0.8
		c-0.2,0-0.4-0.1-0.6-0.3V16z M80.6,8.8c1.3,0,1.8-2.5,1.8-3.3c0-0.9-0.4-2-1.5-2c-0.3,0-0.5,0.2-0.5,0.5c0,1.6-0.1,3-0.1,4.7
		C80.3,8.7,80.5,8.8,80.6,8.8z"/>
	<path class="st6" d="M89.7,3.4c0,0.7-1.1,0.5-1.4,0.5h-0.1c-1.8,0-2.6,3.8-2.6,5.9c0,2.4,0.1,4.1,1.8,5.5c0.8,0.7,2,0,2.3,0.5
		c0.4,0.7-0.3,0.9-0.9,0.9c-4.3-0.1-4.9-5.7-4-9.4c0.4-2,1.6-4.6,4-4.6C89.3,2.7,89.7,3,89.7,3.4z"/>
	<path class="st6" d="M91.6,4c0-0.3,0.3-0.7,0.7-0.7h3c0.1,0,0.5,0.3,0.5,0.4c0,0,0,0.1,0,0.1c0,0.4-0.5,0.5-0.8,0.5h-2.2l0.1,6.2
		l2-0.3h0.1c0.9,0,0.5,0.9-0.2,1l-1.9,0.3l-0.1,4.9c0.2,0,0.8,0,1,0c1.3,0,2.2-0.4,2.2,0.4c0,0.6-4.2,0.6-4.2,0.2L91.6,4z"/>
	<path class="st6" d="M97.2,13.9c0-1.6,0-9.1,0-10.7V3.1c0-0.4,0.2-0.8,0.5-1h0.2c0.8,0,1.5,0.2,2.1,0.7c2,1.8,2.4,5,2.3,7.6
		c-0.1,3.6-1,7.1-4.1,7.4c-0.6,0.1-1,0-1-0.7V13.9z M98.2,10.3c0,1.7,0,4.5,0,6.4c2.3-0.4,3-4.1,3-6.1c0-1.5-0.1-7.3-2.7-7.3h-0.1
		C98.3,4.3,98.2,9.2,98.2,10.3z"/>
	<path class="st6" d="M109.8,4.4c0-1,0.6-1.5,2.2-1.6c0.5,0,1.9-0.2,2,0.6c0,0.3-0.3,0.3-0.5,0.4c-0.6,0-2.4-0.2-2.4,0.8v0.1
		c0.1,1.2,0.2,2.7,0.3,3.8c0.3,0,0.7,0,1.1,0c0.3,0,1.4-0.5,1.4,0.2c0,0.9-2,0.6-2.4,0.8c-0.2,2,0.3,4.1,0.4,6.4v0.1
		c0,0.8-0.9,0.6-1,0.1C110.4,14.2,109.9,8.1,109.8,4.4L109.8,4.4z"/>
	<path class="st6" d="M115.8,16c0-4.2,0.2-8.5,0.3-12.7c0-0.9,0.4-0.9,1.1-0.9h0.2c1.7,0,2.8,1.1,2.8,2.8v0.2c0,1.4-0.4,3-1.6,3.8
		c0.1,0.1,0.5,0.6,0.6,0.7c0.8,1.1,0.6,3.8,0.7,5.1c0,0.1,0.1,1,0.1,1.1v0.2c0,0.3-0.3,0.4-0.5,0.4h0c-0.2,0-0.5,0-0.5-0.3
		c0-0.6-0.2-3.5-0.2-4.1c-0.1-0.9-0.3-2.2-1.4-2.2H117c0,0.2-0.1,0.9-0.1,1.1c0,0.2-0.1,4.3-0.1,5.9c0,0.4,0.1,0.8-0.4,0.8
		c-0.2,0-0.4-0.1-0.6-0.3V16z M117.2,8.8c1.3,0,1.8-2.5,1.8-3.3c0-0.9-0.4-2-1.5-2c-0.3,0-0.5,0.2-0.5,0.5c0,1.6-0.1,3-0.1,4.7
		C117,8.7,117.1,8.8,117.2,8.8z"/>
	<path class="st6" d="M125.5,2.5c3.4,0.4,2.9,8.4,2.7,10.9c-0.1,1.4-0.8,3.8-2.7,3.8c-3.3,0-3.5-5.7-3.5-7.9
		C122,6.9,122.2,2.5,125.5,2.5z M123.1,9.2c0,5.5,1,7,2.3,7c1.8,0,1.9-4.8,1.9-5.9v-0.1c0-1.4-0.4-6.7-2.2-6.7c-1.4,0-2,3.1-2,4.1
		C123.1,8.2,123.1,8.7,123.1,9.2z"/>
	<path class="st6" d="M136.3,5.7l-2,5c0,0.4-0.9,0.4-1.1,0.2c0,0-0.1-0.2-0.1-0.2c-0.5-1.6-0.9-3.1-1.5-4.7
		c-0.3,3.5,0.1,7.1-0.4,10.6c-0.2,0.1-0.4,0.1-0.6,0.1c-0.4,0-0.4-0.1-0.4-0.4c0-0.6,0.2-1,0.1-12.8c0-0.6,0.9-1,1.1-0.4l2.3,6.3
		c0.5-0.6,2.2-5.9,2.6-6.6c0.2-0.4,0.6-0.3,1.1,0c0,0,0.1,6.2,0.1,8.8c0,1.7,0.1,3.4,0.1,5.1c0,0.3-0.2,0.6-0.6,0.6
		c-0.3,0-0.4-0.1-0.5-0.4C136.6,13.3,136.5,9.5,136.3,5.7z"/>
	<path class="st6" d="M145.1,13.9c0-1.6,0-9.1,0-10.7V3.1c0-0.4,0.2-0.8,0.5-1h0.2c0.8,0,1.5,0.2,2.1,0.7c2,1.8,2.4,5,2.3,7.6
		c-0.1,3.6-1,7.1-4.1,7.4c-0.6,0.1-1,0-1-0.7V13.9z M146.2,10.3c0,1.7,0,4.5,0,6.4c2.3-0.4,3-4.1,3-6.1c0-1.5-0.1-7.3-2.7-7.3h-0.1
		C146.3,4.3,146.2,9.2,146.2,10.3z"/>
	<path class="st6" d="M152.1,4c0-0.3,0.3-0.7,0.7-0.7h3c0.1,0,0.5,0.3,0.5,0.4c0,0,0,0.1,0,0.1c0,0.4-0.5,0.5-0.8,0.5h-2.2l0.1,6.2
		l2-0.3h0.1c0.9,0,0.5,0.9-0.2,1l-1.9,0.3l-0.1,4.9c0.2,0,0.8,0,1,0c1.3,0,2.2-0.4,2.2,0.4c0,0.6-4.2,0.6-4.2,0.2L152.1,4z"/>
	<path class="st6" d="M158,2.4c0.1-0.1,0.7-0.4,0.9-0.2c0.1,0,0.3,0.3,0.4,0.4l1.6,11.6c0.6-3.4,1.3-7.8,1.9-11.2
		c0-0.6,0.3-0.7,0.6-0.7c0.3,0,0.5,0,0.6,0.4c-0.8,3.1-1.3,6.3-1.8,9.5l-0.7,4.8c-0.1,0.3-0.3,0.4-0.6,0.4c-0.2,0-0.4,0-0.5-0.2
		C159.3,12.2,158.9,7.2,158,2.4z"/>
	<path class="st6" d="M168.4,2.5c3.4,0.4,2.9,8.4,2.7,10.9c-0.1,1.4-0.8,3.8-2.7,3.8c-3.3,0-3.5-5.7-3.5-7.9
		C164.9,6.9,165.1,2.5,168.4,2.5z M166,9.2c0,5.5,1,7,2.3,7c1.8,0,1.9-4.8,1.9-5.9v-0.1c0-1.4-0.4-6.7-2.2-6.7c-1.4,0-2,3.1-2,4.1
		C166,8.2,166,8.7,166,9.2z"/>
	<path class="st6" d="M173.4,3.9c0-0.8,1-1.2,1.4-0.1l3.8,10.4c0-0.8,0.2-5.4,0.3-7.3c0.1-1.1,0-2.3,0.2-3.3c0-0.2,0.2-0.2,0.5-0.2
		c0.5,0,0.5,0,0.5,0.5c-0.1,2-0.3,3.9-0.4,5.9c0,1.1-0.2,6.3-0.2,7.4c-0.1,0.4-0.7,0.2-0.9-0.1c-0.2-0.4-0.3-0.8-4.3-11.4L174.1,17
		c0,0.6-1,0.5-1,0.1L173.4,3.9z"/>
	<path class="st6" d="M183.2,16.6c-0.4,0.5-0.8,0.9-1.4,0.9c-0.2,0-0.5,0-0.5-0.2c0-0.4,0.4-0.5,0.7-0.7c0.1-0.1,0.5-0.5,0.7-0.7
		c0.4-0.5,0.8-1,1-1.5c0.6-1.4,0.7-2.9,0.7-4.3c0-1.7-0.2-3.2-0.8-4.9c-0.2-0.6-1.6-2.2-1.6-2.4c0-0.3,0.1-0.5,0.4-0.5
		c0.4,0,0.8,0.5,1,0.8c1.4,1.7,1.9,4.3,1.9,6.5C185.2,12,184.9,14.8,183.2,16.6z"/>
</g>
</svg>
