<?xml version="1.0" encoding="utf-8"?>
<!-- Generator: Adobe Illustrator 23.1.1, SVG Export Plug-In . SVG Version: 6.00 Build 0)  -->
<svg version="1.1" id="Layer_1" xmlns="http://www.w3.org/2000/svg" xmlns:xlink="http://www.w3.org/1999/xlink" x="0px" y="0px"
	 viewBox="0 0 316.4 73.8" style="enable-background:new 0 0 316.4 73.8;" xml:space="preserve">
<style type="text/css">
	.st0{fill:#3B332E;stroke:#3B332E;stroke-width:0.2736;}
	.st1{enable-background:new    ;}
	.st2{fill:#3B332E;}
	.st3{fill:none;stroke:#3B332E;stroke-width:0.2723;}
	.st4{fill:none;}
	.st5{fill:none;stroke:#3B332E;stroke-width:0.4085;}
	.st6{fill:#65433D;}
</style>
<g class="st1">
	<path class="st6" d="M20.3,45.7L5.1,9.7h26.2l4.5,9.8l5.5-9.8h24.9L49.8,42.9v22.9H20.3V45.7z"/>
	<path class="st6" d="M77.2,65.3c-11.6-4.7-18.7-17.5-18-28.4c1.9-16.8,9.5-22.8,19.9-26.8l24.9-0.4c14.3,4,18.1,16.4,19,28.4
		c-1.7,11.9-4.5,22.8-16.8,27.4L92,65.9L77.2,65.3z M89.7,35.5c-1.2,2.8,0.5,4.5,1.2,4.5c0.2,0.4,1.7,0.8,2.7-0.6
		C94.4,37.2,92.9,34.4,89.7,35.5z"/>
	<path class="st6" d="M146.1,65.6c-9.7-2.7-21.5-9.5-21.5-20.9c0-4.2,0.4-16.1,1.2-19.5c3.7-6.2,7.6-12.5,15.2-15.2l21.6-0.4
		c5.3,0.5,11.7,0.7,15.6,1.6l2,20.6c-4.2-0.4-18.7,1.2-20.6,1.4c-3.5,0.5-6,0.7-6.2,2.5c-0.5,2.6-0.3,4.8,1.4,5.8
		c1.1,1,4,1.1,5.8,0.7l-3-2.5l0.2-3.7l26-0.9l2.8,21.5c-3.6,4.6-14.5,8.5-19.2,9.3L146.1,65.6z"/>
	<path class="st6" d="M188.6,9.7h26.3l1.1,23.8l0.5,7.8c1.2-0.1,1.7-1,2.8-1.3l0.3-30.3h26.8l0.1,45.8c-3.9,5.9-8.5,8.4-15.8,10.2
		h-29.9c-6.9-2.8-10.4-6.7-12.4-10.4L188.6,9.7z"/>
	<path class="st6" d="M251.8,9.7h24.1l9.3,11.8L285,9.7H311l0.4,56.1h-26.2l-9-12.3l0.1,12.3h-25.8L251.8,9.7z"/>
</g>
</svg>
