<svg height="512" viewBox="0 0 64 64" width="512" xmlns="http://www.w3.org/2000/svg"><path d="m50 37h2v12h-2z" fill="#009986"/><path d="m37.8 39.75a3.93 3.93 0 0 1 -1.38.25h-8.78a3.985 3.985 0 0 1 -5.28 0h-8.78a3.93 3.93 0 0 1 -1.38-.25 3.991 3.991 0 0 1 -2.59-4.29l2.26-16.68.73-5.39a11.991 11.991 0 0 1 11.89-10.39h1.02a11.991 11.991 0 0 1 11.89 10.39l.7 5.19 2.29 16.88a3.991 3.991 0 0 1 -2.59 4.29z" fill="#57565c"/><path d="m33 39h-.8v-2h.8a2 2 0 0 0 2-2h2a4 4 0 0 1 -4 4z" fill="#48474b"/><path d="m17.8 39h-.8a4 4 0 0 1 -4-4h2a2 2 0 0 0 2 2h.8z" fill="#48474b"/><path d="m43.25 55h-6.25v6h7 1v-6z" fill="#ffc477"/><path d="m45 51h-8v4h8a2.015 2.015 0 0 0 2-2 2.006 2.006 0 0 0 -2-2z" fill="#1e81ce"/><path d="m37 55h8v2h-8z" fill="#ffb655"/><path d="m36 49h-22a1 1 0 0 0 -1 1v11h24v-11a1 1 0 0 0 -1-1z" fill="#754c29"/><path d="m59.67 40.02a5.666 5.666 0 0 1 -8.67 4.98v-.09a5.664 5.664 0 0 1 8.67-4.89z" fill="#00b39d"/><path d="m57.39 32.65a2.975 2.975 0 0 1 -3.74 3.74 2.986 2.986 0 0 1 -5.3 0 2.975 2.975 0 0 1 -3.74-3.74 2.986 2.986 0 0 1 0-5.3 2.975 2.975 0 0 1 3.74-3.74 2.986 2.986 0 0 1 5.3 0 2.975 2.975 0 0 1 3.74 3.74 2.986 2.986 0 0 1 0 5.3z" fill="#ff5023"/><circle cx="51" cy="30" fill="#ffd422" r="3"/><path d="m51 44.91v.09a5.717 5.717 0 0 1 -5.83.11 5.444 5.444 0 0 1 -1.91-1.81 5.906 5.906 0 0 1 -.93-3.28 5.664 5.664 0 0 1 8.67 4.89z" fill="#00b39d"/><path d="m59 53-1 8h-14l-1-8z" fill="#acabb1"/><path d="m51 49h-6.01-3.99v2 2h2 2 2 12 2v-4z" fill="#787680"/><path d="m37.96 18.6a1.752 1.752 0 0 1 .04.4 2 2 0 0 1 -3 1.73v-3.46a2 2 0 0 1 2.96 1.33z" fill="#ffb655"/><path d="m43.06 43.43a9.985 9.985 0 0 0 -5.08-3.62l-.18-.06-1.8-.56v9.81a1 1 0 0 1 1 1v1h4v-2h3.99a9.979 9.979 0 0 0 -1.93-5.57z" fill="#3d9ae2"/><path d="m32.9 38.22a7.123 7.123 0 0 1 -.5 1.78 6.138 6.138 0 0 1 -.4.86v8.14a2.006 2.006 0 0 0 2 2 2.015 2.015 0 0 0 2-2v-9.81z" fill="#8b5e3c"/><path d="m35 20.73v2.27a10 10 0 0 1 -20 0v-7h5.51a5.993 5.993 0 0 0 4.25-1.76l2.24-2.24 1.2 1.6a6 6 0 0 0 4.8 2.4h2z" fill="#ffc477"/><path d="m32.2 38-3.2-1a4.009 4.009 0 0 1 -4 4l2.79 3.49a7.94 7.94 0 0 0 4.21-3.63 6.138 6.138 0 0 0 .4-.86 7.123 7.123 0 0 0 .5-1.78z" fill="#e6e7e8"/><path d="m32 40.86v8.14h-14v-8.14a7.94 7.94 0 0 0 4.21 3.63l2.79-3.49 2.79 3.49a7.94 7.94 0 0 0 4.21-3.63z" fill="#3d9ae2"/><path d="m29 32.16v4.84a4 4 0 0 1 -8 0v-4.84a9.944 9.944 0 0 0 8 0z" fill="#ffc477"/><path d="m22.36 40a3.984 3.984 0 0 1 -1.36-3l-3.2 1-.7.22a7.123 7.123 0 0 0 .5 1.78 6.138 6.138 0 0 0 .4.86 7.94 7.94 0 0 0 4.21 3.63l2.79-3.49a4 4 0 0 1 -2.64-1z" fill="#e6e7e8"/><path d="m17.6 40a7.123 7.123 0 0 1 -.5-1.78l-3.1.97v9.81a2.015 2.015 0 0 0 2 2 2.006 2.006 0 0 0 2-2v-8.14a6.138 6.138 0 0 1 -.4-.86z" fill="#8b5e3c"/><path d="m15 17.27v3.46a2 2 0 0 1 -3-1.73 1.275 1.275 0 0 1 .01-.2 2 2 0 0 1 2.99-1.53z" fill="#ffb655"/><path d="m12.2 39.75-.18.06a9.989 9.989 0 0 0 -7.02 9.54v1.65h8v-1a1 1 0 0 1 1-1v-9.81z" fill="#3d9ae2"/><path d="m5 55h8v6h-8z" fill="#ffc477"/><path d="m5 51a2.006 2.006 0 0 0 -2 2 2.015 2.015 0 0 0 2 2h8v-4z" fill="#1e81ce"/><path d="m29 32.16v2a9.944 9.944 0 0 1 -8 0v-2a9.944 9.944 0 0 0 8 0z" fill="#ffb655"/><path d="m5 55h8v2h-8z" fill="#ffb655"/><path d="m59 53-.25 2h-15.5l-.25-2z" fill="#898890"/><g fill="#ee8700"><path d="m19 19h2v2h-2z"/><path d="m29 19h2v2h-2z"/><path d="m25 29a4 4 0 0 1 -4-4h2a2 2 0 0 0 4 0h2a4 4 0 0 1 -4 4z"/></g><path d="m51 34a4 4 0 1 1 4-4 4 4 0 0 1 -4 4zm0-6a2 2 0 1 0 2 2 2 2 0 0 0 -2-2z" fill="#ed1c24"/></svg>