<?xml version="1.0" encoding="utf-8"?>
<!-- Generator: Adobe Illustrator 23.1.1, SVG Export Plug-In . SVG Version: 6.00 Build 0)  -->
<svg version="1.1" id="Layer_1" xmlns="http://www.w3.org/2000/svg" xmlns:xlink="http://www.w3.org/1999/xlink" x="0px" y="0px"
	 viewBox="0 0 478 65" style="enable-background:new 0 0 478 65;" xml:space="preserve">
<style type="text/css">
	.st0{fill:#3B332E;stroke:#3B332E;stroke-width:0.2736;}
	.st1{enable-background:new    ;}
	.st2{fill:#3B332E;}
	.st3{fill:none;stroke:#3B332E;stroke-width:0.2723;}
	.st4{fill:none;}
	.st5{fill:none;stroke:#3B332E;stroke-width:0.4085;}
	.st6{fill:#65433D;}
	.st7{fill:none;stroke:#3B332E;stroke-width:3;}
</style>
<g>
	<g>
		<path class="st6" d="M6.9,9.4h19.7l0.1,15.1l1.6-3.2l2.4-11.9h14.2l2,11.7l0.7,4.2l3-15.9h19.1L66.7,56h-25l-4.4-11.6L32.8,56H9.8
			L6.9,9.4z"/>
		<path class="st6" d="M72.7,9.4h21.9l0.6,14.7h3L99,9.4h23.4L120.5,56H98.9l-0.7-13.8h-3L95.5,56H72.1L72.7,9.4z"/>
		<path class="st6" d="M135.5,39.4L122.9,9.4h21.7l3.8,8.1l4.6-8.1h20.7L160,37v19h-24.5V39.4z"/>
		<path class="st6" d="M187.6,9.4h23l2.1,14.1l0.8,5.5l3.9-19.7h21.1L228,56h-32.7L187.6,9.4z"/>
		<path class="st6" d="M239.6,9.4h38.8v14.7L262,24.9l-0.2,1.6l16.6,0.4v11.5l-16,0.9v1.3l16,1.1V56h-31.2l-6.9-1.9L239.6,9.4z"/>
		<path class="st6" d="M299,55.8c-8.1-2.2-17.9-7.9-17.9-17.4c0-3.5,0.4-13.4,1-16.2c3.1-5.2,6.3-10.4,12.6-12.6l18-0.3
			c4.4,0.4,9.8,0.6,12.9,1.3l1.7,17.1c-3.5-0.3-15.5,1-17.1,1.2c-2.9,0.4-5,0.6-5.2,2.1c-0.4,2.1-0.2,4,1.2,4.8
			c0.9,0.8,3.3,0.9,4.8,0.6l-2.5-2.1l0.1-3.1l21.6-0.7l2.4,17.8c-3,3.8-12,7.1-16,7.7L299,55.8z"/>
		<path class="st6" d="M344.9,9.4h29L389.5,56h-26.8l-2.3-6.9l-1.5,0.1l-2.1,6.8h-25.7L344.9,9.4z M359.3,29.1
			c-0.8,0.1-1.8,2.9-2.1,4.6c1.3,0,2.4,0.1,4.1-0.2C361.1,31.6,360.5,29.9,359.3,29.1z"/>
		<path class="st6" d="M392,9.4h20l7.7,9.8l-0.1-9.8h21.7l0.4,46.6h-21.7l-7.5-10.2l0.1,10.2h-21.4L392,9.4z"/>
		<path class="st6" d="M453.4,25.6l-0.6-1.8l-7.9,1.6l-0.7-11.8c2-2,2.9-3.3,8-4.2h13.5c3.6,0.9,7.3,2.1,8.7,6.1L473,28.9l-5.9,10.6
			l-18-0.4L453.4,25.6z M448.7,41.9c5.5,0,13.7-1.1,18.4-0.7L466.7,56c-3,0-13.6,0.6-18.5,0L448.7,41.9z"/>
	</g>
</g>
</svg>
