<svg xmlns="http://www.w3.org/2000/svg" width="312.422" height="306.727" viewBox="0 0 312.422 306.727">
  <g id="PL_x5F_Cart_1_" transform="translate(-64 -64)">
    <path id="Path_59" data-name="Path 59" d="M431.68,411.34A20.34,20.34,0,1,1,411.34,391,20.347,20.347,0,0,1,431.68,411.34Z" transform="translate(-60.953 -60.953)" fill="#3b332e"/>
    <path id="Path_60" data-name="Path 60" d="M143.68,411.34A20.34,20.34,0,1,1,123.34,391,20.347,20.347,0,0,1,143.68,411.34Z" transform="translate(-7.27 -60.953)" fill="#3b332e"/>
    <path id="Path_61" data-name="Path 61" d="M115.989,90.035,106.958,64H64V77.831H97.927l46.782,173.541c-26.361,9.194-48.735,30.835-53.128,59.474a97.648,97.648,0,0,0-1.546,13.506H376.422V310.765H105.738c3.824-25.71,31.568-47.27,60.288-50.85S363.974,232.09,363.974,232.09L376.422,90.035Z" fill="#3b332e"/>
  </g>
</svg>
