<?xml version="1.0" encoding="utf-8"?>
<!-- Generator: Adobe Illustrator 23.1.1, SVG Export Plug-In . SVG Version: 6.00 Build 0)  -->
<svg version="1.1" id="Layer_1" xmlns="http://www.w3.org/2000/svg" xmlns:xlink="http://www.w3.org/1999/xlink" x="0px" y="0px"
	 viewBox="0 0 463 72" style="enable-background:new 0 0 463 72;" xml:space="preserve">
<style type="text/css">
	.st0{fill:#3B332E;stroke:#3B332E;stroke-width:0.2736;}
	.st1{enable-background:new    ;}
	.st2{fill:#3B332E;}
	.st3{fill:none;stroke:#3B332E;stroke-width:0.2723;}
	.st4{fill:none;}
	.st5{fill:none;stroke:#3B332E;stroke-width:0.4085;}
	.st6{fill:#65433D;}
	.st7{fill:none;stroke:#3B332E;stroke-width:3;}
</style>
<g class="st1">
	<path class="st6" d="M21.4,64.6c-9.5-2.8-16.3-9.8-16.3-21.3c0-4.3,0.4-16.2,1.2-19.7c3.9-6.3,9.7-12.5,17.4-15.2l23.1-0.2
		c6.8,3.7,12.7,6.9,16.7,23.4l-23.3,2.7c-0.9-0.8-2.4-1.5-3.7-1.4c-1.8,0.4-3,0.7-3.2,2.6c-0.2,2.3,1.2,3.6,3.1,3.8
		c1.6,0.2,3.1-1.1,4-2.6L64,40.1c0.3,13.4-3.5,19.2-11.9,24.5L21.4,64.6z"/>
	<path class="st6" d="M78,8.5h34.9l18.8,56.1H99.4l-2.8-8.3l-1.8,0.1l-2.5,8.2h-31L78,8.5z M95.3,32.1c-1,0.1-2.2,3.5-2.5,5.5
		c1.5,0,2.8,0.1,4.9-0.3C97.4,35.2,96.7,33.1,95.3,32.1z"/>
	<path class="st6" d="M138.5,33.8l-13.9,0.7V8.5h57.1v24.4l-14.5,0.5v31.2h-27.7L138.5,33.8z"/>
	<path class="st6" d="M184.5,8.5h46.7v17.7l-19.7,0.9l-0.3,1.9l19.9,0.5v13.8L212,44.3v1.5l19.2,1.3v17.4h-37.6l-8.3-2.3L184.5,8.5z
		"/>
	<path class="st6" d="M235.9,8.5H276c6.3,1.4,11.3,2.9,15.3,8.6l0.5,16.6c-2.2,4.1-4.5,5.9-8,7.7l11.8,23.2h-27.4l-5.7-8.2l-0.1,8.2
		h-26.5V8.5z M261.1,25.5c-2.1,1.6-1.6,2.9,0,4.6c3,0.9,3.7-0.4,4.2-1.4C265.1,26.3,264.3,25.5,261.1,25.5z"/>
	<path class="st6" d="M297.9,8.5h29.7l-0.2,56.1h-30.6L297.9,8.5z"/>
	<path class="st6" d="M333.3,8.5h24.1l9.3,11.8l-0.2-11.8h26.1l0.4,56.1h-26.2l-9-12.3l0.1,12.3h-25.8L333.3,8.5z"/>
	<path class="st6" d="M417.4,64.4c-9.7-2.7-21.5-9.5-21.5-20.9c0-4.2,0.4-16.1,1.2-19.5c3.7-6.2,7.6-12.5,15.2-15.2l21.6-0.4
		c5.3,0.5,11.7,0.7,15.6,1.6l2,20.6c-4.2-0.4-18.7,1.2-20.6,1.4c-3.5,0.5-6,0.7-6.2,2.5c-0.5,2.6-0.3,4.8,1.4,5.8
		c1.1,1,4,1.1,5.8,0.7l-3-2.5l0.2-3.7l26-0.9l2.8,21.5c-3.6,4.6-14.5,8.5-19.2,9.3L417.4,64.4z"/>
</g>
</svg>
