<svg id="Layer_1" data-name="Layer 1" xmlns="http://www.w3.org/2000/svg" width="147.97" height="105.14" viewBox="0 0 147.97 105.14">
  <defs>
    <style>
      .cls-1, .cls-3 {
        fill: #3b332e;
      }

      .cls-1, .cls-4, .cls-5 {
        stroke: #3b332e;
      }

      .cls-1 {
        stroke-width: 0.27px;
      }

      .cls-2 {
        isolation: isolate;
      }

      .cls-4, .cls-5 {
        fill: none;
      }

      .cls-4 {
        stroke-width: 0.27px;
      }

      .cls-5 {
        stroke-width: 0.41px;
      }

      .cls-6 {
        fill: #65433d;
      }
    </style>
  </defs>
  <title>FINALFinal</title>
  <g id="Group_3" data-name="Group 3">
    <g id="Group_2" data-name="Group 2">
      <g id="Group_1" data-name="Group 1">
        <path id="Path_1" data-name="Path 1" class="cls-1" d="M12,51.33c-.11-.69-.4-2.41-.42-2.41-.52.18-.78.26-1.31.42s-.75-.17,0-.47c1.17-.46,2.51-.95,3.81-1.53.72-.32.76.2.3.43-.7.33-1.06.49-1.76.77,0,0,.37,3,.54,4.17,0,.38.1,1.11.17,1.55l0,.12c-.09.3-.88.28-.95.08C12.2,54,12.07,52,12,51.33Z"/>
        <path id="Path_2" data-name="Path 2" class="cls-1" d="M16.44,46.48c-.06-1,.92-1.38,1.31-.79.57.88,1,1.45,3.77,7.16a.5.5,0,0,1-.76.4c-.37-.77-.56-1.14-.92-1.88-.86.48-1.29.7-2.16,1.1a16.85,16.85,0,0,0,0,2c0,.26-.72.39-.73.2C16.78,51.48,16.67,49.84,16.44,46.48Zm1.1,4.88c0,.08.05.51.06.59.8-.38,1.2-.59,2-1-.95-1.77-1.43-2.62-2.35-4.21C17.28,47.4,17.48,50.66,17.54,51.36Z"/>
        <path id="Path_3" data-name="Path 3" class="cls-1" d="M22.37,42.45c-.1-1.27.87-1.71,1.28-1,.59,1,1,1.76,4,8.46.05.32-.39.81-.75.51-.39-.9-.59-1.34-1-2.21-.84.62-1.26.91-2.1,1.48,0,.68.06,1.91.1,2.46,0,.32-.69.55-.71.32C22.88,48.54,22.72,46.54,22.37,42.45Zm1.26,5.88c0,.1.07.63.08.73.78-.53,1.17-.81,1.94-1.39-1-2.09-1.5-3.09-2.48-5,.06.85.38,4.81.46,5.65Z"/>
        <path id="Path_4" data-name="Path 4" class="cls-1" d="M28.18,37.62c-.14-1.49.83-2,1.25-1.11.63,1.24,1.1,2.12,4.22,10,.06.37-.37.92-.74.56-.41-1.05-.62-1.56-1-2.58-.82.68-1.23,1-2.06,1.68,0,.8.11,2.24.16,2.89,0,.38-.67.67-.69.39C28.86,44.77,28.63,42.41,28.18,37.62Zm1.42,6.92c0,.12.08.73.1.85.77-.62,1.15-.94,1.91-1.58C30.54,41.35,30,40.17,29,37.91,29.07,38.92,29.5,43.55,29.6,44.54Z"/>
        <path id="Path_5" data-name="Path 5" class="cls-1" d="M33.93,32.47c-.16-1.7.8-2.12,1.26-1.12.66,1.47,1.16,2.55,4.48,11.65.07.42-.36,1-.74.56-.44-1.22-.66-1.82-1.1-3l-2,1.72c0,.91.15,2.55.23,3.3,0,.43-.67.72-.7.4C34.77,40.65,34.5,38,33.93,32.47Zm1.59,8c0,.13.1.83.12,1l1.9-1.62c-1.13-2.87-1.69-4.25-2.78-6.91.11,1.14.64,6.43.76,7.56Z"/>
        <path id="Path_6" data-name="Path 6" class="cls-1" d="M40.77,39.93c.6-.22.65.8,1.3.59,1-.34,1.17-1.38,1.13-2.56a6.66,6.66,0,0,0-2.46-5,3,3,0,0,1-1-2.35,5,5,0,0,1,1.66-4.27,2.08,2.08,0,0,1,.34-.24c.42-.26.74-.35.75.29,0,1.12-1.87.68-1.79,3.74,0,1.41.52,1.63,1.24,2.46a7.55,7.55,0,0,1,2.2,5.06c0,1.82-.35,3-1.64,3.7a3.39,3.39,0,0,1-.39.18c-.58.17-1.65,0-1.78-.76v-.15A1,1,0,0,1,40.77,39.93Z"/>
        <path id="Path_7" data-name="Path 7" class="cls-1" d="M46,29.67c-.27-1.69-1-5.93-1-5.94-.5.31-.75.47-1.25.8-.53.16-.81-.54-.1-1.17A16.28,16.28,0,0,1,47.37,21c.71-.34.86.85.4,1.11-.7.38-1,.58-1.73,1,0,0,1,7.14,1.47,10,.14.9.35,2.65.52,3.71l0,.29c0,.72-.79.74-.93.21C46.79,36,46.26,31.25,46,29.67Z"/>
        <path id="Path_8" data-name="Path 8" class="cls-1" d="M52.85,27.24c-.44-.79-2.47-4.37-2.86-5.11-.64-1.15.23-1.77.5-1.18,1.1,2,1.65,3,2.78,5.14,0-2.74,0-4.12.06-6.92,0-.73,1-1,1.08-.16v.11c-.16,3.27-.25,4.89-.42,8.07.87,4,1.3,6,2.19,10,.06.41-.14.57-.38.59a.54.54,0,0,1-.58-.42C54.5,34.29,53.75,29.81,52.85,27.24Z"/>
      </g>
    </g>
    <g id="this" class="cls-2">
      <g class="cls-2">
        <path class="cls-3" d="M3.13,33.45c-.42.36-.62.5-.73.4s-.23-.34.53-.86l.6-.46c.16-.11.43-.29.59-.09a.2.2,0,0,1,0,.25l-.59.45,3.58,4.38c0,.06-.07.2-.11.24s-.21.1-.26,0Z"/>
        <path class="cls-3" d="M7.39,35l1.53,2c.24.32-.24.5-.32.42L7.32,35.7c-.42-.55-2.56-3.42-3-4a.34.34,0,0,1,.16-.21.32.32,0,0,1,.33,0c.52.68,1.2,1.69,1.75,2.41l.5.64c.11,0,.15,0,.21-.09.27-.2.54-.41.81-.59-.56-.84-1.59-2.24-2.3-3.12l0,0a.21.21,0,0,1,.07-.3.4.4,0,0,1,.34,0c.12.16.45.62.55.78,2.39,3.31,3.83,4.81,3.6,5s-.47-.1-.84-.57c-.09-.13-1-1.25-1.11-1.37Z"/>
        <path class="cls-3" d="M7.34,30c-.06-.17,0-.21.12-.32s.27-.07.43.14L8,30l3.5,5c.23.32-.15.66-.31.45Z"/>
        <path class="cls-3" d="M11.55,33.17c.35-.13.56.69,1.07.62l0,0c.4-.3.09-.93-.13-1.22a3.66,3.66,0,0,0-1.09-1c-.92-.51-2.12-.6-2.79-1.47-.31-.4-.57-1.24-.08-1.61.31-.24,1-.39,1.29,0,.11.13.12.24,0,.35s-.51-.28-.9,0,0,.8.19,1.05c.54.71,1.53.75,2.3,1.1a3.42,3.42,0,0,1,1.71,1.66c.17.45.23,1.2-.2,1.53s-1.18-.12-1.5-.55A.29.29,0,0,1,11.55,33.17Z"/>
      </g>
    </g>
    <g id="Looks" class="cls-2">
      <g class="cls-2">
        <path class="cls-3" d="M12.4,37.3c.12-.08.32,0,.42.1,1.18,1.67,2.31,3.4,3.59,5a4.15,4.15,0,0,1,.8-.75c.13-.09.28-.13.38,0a.23.23,0,0,1,0,.31c-.2.26-.55.47-.76.72a1.48,1.48,0,0,1-.26.31.34.34,0,0,1-.37-.05c-.68-.85-1.29-1.84-1.92-2.71L13,38.47l-.63-1A.2.2,0,0,1,12.4,37.3Z"/>
        <path class="cls-3" d="M15.72,35.15c1.45-.74,3.36,2.61,4,3.66.3.59.65,1.73-.1,2.23-1.34.87-2.89-1.37-3.47-2.25S14.38,36,15.72,35.15Zm.79,3.33C18,40.69,18.76,41,19.3,40.67c.74-.48-.51-2.41-.82-2.88l0,0c-.39-.58-1.93-2.59-2.65-2.12-.57.37,0,1.79.27,2.17Z"/>
        <path class="cls-3" d="M19,33c1.46-.73,3.37,2.61,3.95,3.67.31.58.66,1.72-.09,2.22-1.34.88-2.9-1.36-3.48-2.25S17.68,33.86,19,33Zm.8,3.33c1.45,2.21,2.25,2.55,2.79,2.2.74-.49-.51-2.41-.83-2.89l0,0c-.38-.58-1.92-2.59-2.64-2.12s0,1.79.27,2.17S19.67,36.1,19.81,36.31Z"/>
        <path class="cls-3" d="M20.71,32.08a.24.24,0,0,1,.07-.36c.15-.1.27,0,.41.14l1.73,2.47a18.84,18.84,0,0,0-.52-3c-.08-.25-.27-.55,0-.73.11-.07.34-.16.45.24l.63,3.63,3.13,1.69a.27.27,0,0,1,0,.47c-.1.06-.14.09-.26,0-.93-.49-2-1.22-3-1.67l0,.06c.23.35,1.14,1.53,1.77,2.48.05.26-.22.55-.43.25Z"/>
        <path class="cls-3" d="M26.63,34.64c.37-.11.52.74,1,.71l0,0c.42-.27.16-.93,0-1.24a3.67,3.67,0,0,0-1-1.12c-.89-.59-2.1-.76-2.71-1.7-.28-.42-.48-1.29,0-1.64.33-.21,1.06-.31,1.31.08.1.14.11.26,0,.36s-.51-.32-.92,0-.06.81.11,1.07c.5.76,1.49.88,2.25,1.29a3.46,3.46,0,0,1,1.6,1.81c.14.48.15,1.23-.31,1.54s-1.19-.22-1.49-.67A.31.31,0,0,1,26.63,34.64Z"/>
      </g>
    </g>
  </g>
  <g id="Group_8" data-name="Group 8">
    <g id="New">
      <g id="New-2" class="cls-2">
        <g class="cls-2">
          <path class="cls-3" d="M98.9,20.68c.25-.46.62-.05.74.12.77,2.19,1.29,4.42,2.22,6.7l.12-1.78a44.17,44.17,0,0,0,.14-4.6.49.49,0,0,1,.49-.32A.36.36,0,0,1,103,21c-.22,2.75-.33,5.68-.42,8.6v.17c0,.06-.19.24-.3.24a.57.57,0,0,1-.36-.24c-.79-2.38-1.68-4.71-2.44-7.1l-.09,7.25c-.29.66-.74.32-.75-.06Z"/>
          <path class="cls-3" d="M104.24,20.91a.47.47,0,0,1,.44-.45h2a.68.68,0,0,1,.34.25.1.1,0,0,1,0,.07c0,.25-.35.37-.55.37H105l.07,4.22,1.37-.2h.07c.59,0,.36.58-.14.66l-1.28.19,0,3.32c.12,0,.55,0,.67,0,.85,0,1.47-.3,1.51.29,0,.43-2.82.38-2.82.14Z"/>
          <path class="cls-3" d="M110.34,29.72s0,0,0,0c-.08.3-.11.51-.45.55-.17,0-.2,0-.31-.14l-.17-.84c-.36-2.32-.66-4.59-1.08-6.9a10.08,10.08,0,0,0-.42-1.59v-.06c0-.37.75-.42.81-.1.37,1.7.71,4.06,1,5.8l.24,1.4a21.09,21.09,0,0,0,.47-2.94.47.47,0,0,1,.42-.37.35.35,0,0,1,.37.13l1.41,3.51c.07-2.24.32-6,.46-8,.14-.33.7-.37.75.05a13.45,13.45,0,0,1-.15,1.67c-.22,2.69-.24,5.37-.36,8-.14.15-.09.27-.34.29h-.09c-.33,0-.32-.26-.43-.57L111,25.82C110.8,27.56,110.5,28.54,110.34,29.72Z"/>
        </g>
      </g>
    </g>
    <g id="Group_7" data-name="Group 7">
      <g id="Flavours">
        <g id="Group_6" data-name="Group 6">
          <path id="Path_28" data-name="Path 28" class="cls-3" d="M98.61,36.6c0-.92-.13-2.09-.13-2.91,0-.18.51.14.71.23s.61.17.61.54c0,0,0,.2-1-.36,0,.58.06.87.09,1.45.21.11.42.22.64.31a.36.36,0,0,1,.18.3c0,.19-.61-.16-.8-.24l0,.42c0,1,0,1.35,0,2.37,0,.1-.07.14-.16.08s-.2-.13-.21-.21C98.6,38.24,98.62,37,98.61,36.6Z"/>
          <path id="Path_29" data-name="Path 29" class="cls-3" d="M100.69,40.12s-.09-3.67-.09-4.16c0-.13-.09-1.24-.09-1.37v-.05c0-.06,0-.08,0-.12l.13,0c.13,0,.19,0,.22.2a3,3,0,0,1,0,.73c0,1.45.05,2.92.13,4.39h0a6.48,6.48,0,0,0,.88,0c.11,0,.24,0,.24.18a.15.15,0,0,1-.14.15h0A5.72,5.72,0,0,1,100.69,40.12Z"/>
          <path id="Path_30" data-name="Path 30" class="cls-3" d="M103.16,38.8l0,0c0,.33-.07.49-.11.81,0,.11,0,.41-.22.43s-.15-.18-.15-.25c.73-5.15.74-5.19.74-5.19s.08-.34.26-.36a.23.23,0,0,1,.22.07l.05.14a34.29,34.29,0,0,1,.79,4.78c0,.18,0,.27,0,.45,0,0,0,0,0,0s-.07.21-.21.24h0s-.11,0-.12,0c-.07-.53-.1-.79-.17-1.31A9.3,9.3,0,0,1,103.16,38.8Zm.1-.45a8.81,8.81,0,0,0,.88-.11c-.19-1.28-.28-1.92-.47-3.22C103.51,36.36,103.43,37,103.26,38.35Z"/>
          <path id="Path_31" data-name="Path 31" class="cls-3" d="M104.87,34.3c0-.07.25-.21.3-.17a.45.45,0,0,1,.13.1c.22,1.68.32,2.51.53,4.18.2-1.36.41-3.06.6-4.42,0-.24.08-.3.18-.34s.14,0,.19.07c-.25,1.25-.4,2.52-.56,3.76-.09.76-.14,1.14-.23,1.89a.25.25,0,0,1-.19.2c-.07,0-.14,0-.16,0C105.33,37.88,105.19,36,104.87,34.3Z"/>
          <path id="Path_32" data-name="Path 32" class="cls-3" d="M108.18,33.17c1-.29.94,2.83.87,3.77,0,.52-.29,1.48-.88,1.7-1,.4-1.06-1.7-1.06-2.52S107.19,33.47,108.18,33.17ZM107.44,36c0,2.06.3,2.5.72,2.34.57-.22.59-2,.59-2.43v0c0-.54-.14-2.47-.69-2.26s-.61,1.42-.62,1.76V36Z"/>
          <path id="Path_33" data-name="Path 33" class="cls-3" d="M110.88,37.72h-.19c-.93,0-1-2-1-4.48,0-.14,0-.21,0-.34v0c0-.15.37-.23.42-.1s-.24,4.77.82,4.62c.27,0,.36-.44.37-.63,0-.86,0-2.82,0-4.16,0-.12.08-.14.23-.15s.24,0,.25.12c.06,1.21,0,2.52,0,3.77C111.72,36.93,111.68,37.61,110.88,37.72Z"/>
          <path id="Path_34" data-name="Path 34" class="cls-3" d="M112.54,37.42c0-1.57.06-3.18.12-4.73,0-.32.16-.32.49-.3h.09a1.26,1.26,0,0,1,1.26,1.21v.08a1.3,1.3,0,0,1-.71,1.29,3.74,3.74,0,0,1,.27.31c.37.48.28,1.46.32,2,0,0,.05.38.05.42v.05c0,.12-.13.11-.24.09h0c-.09,0-.21,0-.23-.14s-.08-1.31-.1-1.55-.12-.83-.63-.87h-.13a2.73,2.73,0,0,0,0,.4c0,.06-.06,1.62-.06,2.21,0,.13,0,.27-.19.27a.36.36,0,0,1-.25-.11Zm.66-2.68c.59,0,.82-.82.82-1.14a.79.79,0,0,0-.66-.83c-.13,0-.21,0-.21.17,0,.6-.06,1.11-.06,1.73,0,.06.06.07.11.07Z"/>
          <path id="Path_35" data-name="Path 35" class="cls-3" d="M115.42,37.16c.32.19,0,.69.41,1.05l0,0c.44.18.55-.28.55-.57a3.61,3.61,0,0,0-.2-1.26c-.36-.92-1.16-1.82-1.16-2.68,0-.39.28-1,.81-.75.34.14.87.69.87,1.05,0,.14,0,.18-.18.1-.29-.16-.2-.54-.62-.72s-.43.32-.43.56c0,.71.67,1.47,1,2.23a3.33,3.33,0,0,1,.28,2,.66.66,0,0,1-.83.42l-.08,0a1.45,1.45,0,0,1-.77-1.33C115.1,37.14,115.29,37.08,115.42,37.16Z"/>
        </g>
      </g>
    </g>
    <g id="On">
      <g id="On-2" class="cls-2">
        <g class="cls-2">
          <path class="cls-3" d="M112,41c1.1,0,1.25,3.5.16,3.59h-.06c-.41,0-.64-.25-.76-.7C111.26,43.6,110.75,41,112,41Zm-.42,2.67c0,.16.2.63.45.66h.06c.33,0,.44-.61.48-.84.08-.39.14-2.22-.56-2.22h0C111.21,41.34,111.47,43.31,111.56,43.67Z"/>
          <path class="cls-3" d="M113.44,41.22c0-.2.26-.32.36,0l1,2.72c0-.21,0-1.43.07-1.91a4.15,4.15,0,0,1,.06-.87c0-.06,0-.06.13-.06s.12,0,.12.12c0,.52-.09,1-.11,1.54,0,.29-.06,1.65-.06,1.94,0,.1-.19,0-.22,0s-.09-.2-1.14-3l0,3c0,.15-.25.13-.25,0Z"/>
        </g>
      </g>
    </g>
    <g id="SALE_" data-name="SALE ">
      <g id="SALE_2" data-name="SALE 2" class="cls-2">
        <g class="cls-2">
          <path class="cls-3" d="M118.62,44.28c.72.12.59,1.07,1.36,1.18,1.27.22,1.56-.67,1.73-1.72.35-2.2-.72-3.85-1.88-5.68a3.46,3.46,0,0,1-.66-2.68c.27-1.53,1-2.58,2.62-2.58a3.24,3.24,0,0,1,.43,0c.52.06.89.17.79.72-.17,1-2.23-.66-2.68,2.06-.21,1.24.29,1.75,1,2.87,1,1.79,1.93,3.38,1.58,5.48-.27,1.59-.93,2.53-2.51,2.53a3.54,3.54,0,0,1-.46,0c-.68-.12-1.87-.78-1.87-1.58,0,0,0-.09,0-.13A.6.6,0,0,1,118.62,44.28Z"/>
          <path class="cls-3" d="M125.85,32.55c.12-1.79,1.28-1.32,1.61,0,.49,1.94.86,3.71,3,14,0,.43-.58.76-.93.14l-.7-3.5-2.62.39c-.15.91-.29,2.64-.33,3.46,0,.46-.87.35-.86,0Zm.37,9.05c0,.14,0,.89,0,1l2.43-.35-1.91-8.65C126.63,34.84,126.28,40.4,126.22,41.6Z"/>
          <path class="cls-3" d="M132,31.34c.31,0,.56.39.64.68.15,4.39.13,8.84.52,13.25a10.65,10.65,0,0,1,2.33-.41c.35,0,.66.1.66.49a.5.5,0,0,1-.38.56c-.66.23-1.54.2-2.22.39a3.36,3.36,0,0,1-.83.25.73.73,0,0,1-.61-.52c-.23-2.33-.13-4.84-.25-7.13l-.25-4.8V31.63C131.72,31.42,131.83,31.34,132,31.34Z"/>
          <path class="cls-3" d="M137.47,44.32V40.47c0-2.77-.28-4.56-.28-7.34v-1c3.11-.25,3.46,0,3.46.39,0,.13-.09.43-.23.48H138.3c-.13,0-.13.1-.13.16,0,2.06.19,3.57.31,5.69a21,21,0,0,0,2.25,0c.66,0,1.11,1.15.21,1.15h-2.46l0,4.54c.46.12,2.93-.37,2.93.49a.47.47,0,0,1-.37.5H141c-.72.06-3.47.27-3.49-.29Z"/>
          <path class="cls-3" d="M143.9,31.36c.27,0,.6,0,.66.39s.11,1.67.11,2c0,4,.43,6.34.43,10.38,0,.27,0,.6-.37.6-.62,0-.64-.76-.66-1.23v-.09c-.27-4.45-.19-7.19-.68-11.62C143.51,31.46,143.58,31.36,143.9,31.36Zm.66,14.28a.88.88,0,0,1,.87,1c0,.43-.41.49-.78.49s-.75-.31-.75-.86C143.9,46,144.32,45.64,144.56,45.64Z"/>
        </g>
        <g class="cls-2">
          <path class="cls-4" d="M118.62,44.28c.72.12.59,1.07,1.36,1.18,1.27.22,1.56-.67,1.73-1.72.35-2.2-.72-3.85-1.88-5.68a3.46,3.46,0,0,1-.66-2.68c.27-1.53,1-2.58,2.62-2.58a3.24,3.24,0,0,1,.43,0c.52.06.89.17.79.72-.17,1-2.23-.66-2.68,2.06-.21,1.24.29,1.75,1,2.87,1,1.79,1.93,3.38,1.58,5.48-.27,1.59-.93,2.53-2.51,2.53a3.54,3.54,0,0,1-.46,0c-.68-.12-1.87-.78-1.87-1.58,0,0,0-.09,0-.13A.6.6,0,0,1,118.62,44.28Z"/>
          <path class="cls-4" d="M125.85,32.55c.12-1.79,1.28-1.32,1.61,0,.49,1.94.86,3.71,3,14,0,.43-.58.76-.93.14l-.7-3.5-2.62.39c-.15.91-.29,2.64-.33,3.46,0,.46-.87.35-.86,0Zm.37,9.05c0,.14,0,.89,0,1l2.43-.35-1.91-8.65C126.63,34.84,126.28,40.4,126.22,41.6Z"/>
          <path class="cls-4" d="M132,31.34c.31,0,.56.39.64.68.15,4.39.13,8.84.52,13.25a10.65,10.65,0,0,1,2.33-.41c.35,0,.66.1.66.49a.5.5,0,0,1-.38.56c-.66.23-1.54.2-2.22.39a3.36,3.36,0,0,1-.83.25.73.73,0,0,1-.61-.52c-.23-2.33-.13-4.84-.25-7.13l-.25-4.8V31.63C131.72,31.42,131.83,31.34,132,31.34Z"/>
          <path class="cls-4" d="M137.47,44.32V40.47c0-2.77-.28-4.56-.28-7.34v-1c3.11-.25,3.46,0,3.46.39,0,.13-.09.43-.23.48H138.3c-.13,0-.13.1-.13.16,0,2.06.19,3.57.31,5.69a21,21,0,0,0,2.25,0c.66,0,1.11,1.15.21,1.15h-2.46l0,4.54c.46.12,2.93-.37,2.93.49a.47.47,0,0,1-.37.5H141c-.72.06-3.47.27-3.49-.29Z"/>
          <path class="cls-4" d="M143.9,31.36c.27,0,.6,0,.66.39s.11,1.67.11,2c0,4,.43,6.34.43,10.38,0,.27,0,.6-.37.6-.62,0-.64-.76-.66-1.23v-.09c-.27-4.45-.19-7.19-.68-11.62C143.51,31.46,143.58,31.36,143.9,31.36Zm.66,14.28a.88.88,0,0,1,.87,1c0,.43-.41.49-.78.49s-.75-.31-.75-.86C143.9,46,144.32,45.64,144.56,45.64Z"/>
        </g>
      </g>
    </g>
  </g>
  <g id="Group_11" data-name="Group 11">
    <g id="You" class="cls-2">
      <g class="cls-2">
        <path class="cls-3" d="M66,79.47c-.12-.24-.69-1.38-.79-1.62s.2-.44.26-.25l.77,1.61.45-1.78c0-.19.43-.17.43,0v0l-.67,2,.24,2.72c0,.11-.09.15-.18.15s-.18,0-.2-.13A24.39,24.39,0,0,0,66,79.47Z"/>
        <path class="cls-3" d="M68.79,77c1.2.13,1,3,1,3.88,0,.48-.3,1.33-1,1.33-1.18,0-1.24-2-1.24-2.8S67.6,77,68.79,77Zm-.87,2.38c0,2,.37,2.5.84,2.5.66,0,.66-1.7.66-2.12v0c0-.52-.14-2.39-.77-2.39s-.72,1.12-.72,1.45S67.92,79.23,67.92,79.42Z"/>
        <path class="cls-3" d="M71.5,82h-.16c-.83-.1-.89-2.14-1-4.48l0-.33v0c0-.14.36-.14.4,0s-.18,4.55.74,4.55c.23,0,.31-.38.31-.56,0-.83,0-2.7,0-4,0-.11.07-.12.19-.12s.2,0,.21.13c0,1.18,0,2.37,0,3.6C72.2,81.38,72.19,82,71.5,82Z"/>
      </g>
    </g>
    <g id="Can" class="cls-2">
      <g class="cls-2">
        <path class="cls-3" d="M76.13,77.29h0c.27,0,.58.15.58.47,0,.07,0,.15-.11.15s-.25-.27-.49-.31h0c-.9,0-1.52,4.12,0,4.18h0c.48,0,.29-.61.67-.61h0a.14.14,0,0,1,.15.15c0,.12,0,.12-.09.25a.78.78,0,0,1-.74.49h-.06c-1.26-.06-1.31-1.81-1.22-2.67C74.88,78.76,75.16,77.29,76.13,77.29Z"/>
        <path class="cls-3" d="M78.12,80.91l0,0-.12.74c0,.1,0,.38-.19.38s-.15-.17-.15-.23c.69-4.76.69-4.77.69-4.77s.08-.31.24-.31a.24.24,0,0,1,.21.1l0,.13a35.54,35.54,0,0,1,.74,4.6l0,.42v0c0,.12-.07.17-.2.17h0s-.1,0-.11,0l-.16-1.25Zm.1-.41.82,0-.44-3.06Z"/>
        <path class="cls-3" d="M80.33,77.51c0-.26.35-.42.49,0l1.33,3.63c0-.29.06-1.9.1-2.55a7.37,7.37,0,0,1,.08-1.16c0-.07.07-.07.17-.07s.17,0,.17.16c0,.68-.12,1.36-.15,2,0,.38-.08,2.19-.08,2.57,0,.14-.25.06-.3,0s-.12-.27-1.51-4l0,4c0,.2-.34.18-.34,0Z"/>
      </g>
    </g>
    <g id="RECYCLE" class="cls-2">
      <g class="cls-2">
        <path class="cls-3" d="M60.32,89.06c0-.4-.06-2.71-.08-3.31,0-.13-.08-1.25-.09-1.39v0c0-.29.33-.37.58-.37,1.76,0,2.38,1.26,2.38,2.73a2.73,2.73,0,0,1-1.26,2.46c1.47.65,1.82,2.73,1.82,4.15,0,.23-.14.32-.37.32s-.21,0-.28-.2c-.06-1-.3-3.65-1.78-3.65h-.13c-.14,1.44,0,2.89-.11,4.34a.42.42,0,0,1-.68,0C60.34,93.33,60.34,89.82,60.32,89.06Zm.71-.31a2,2,0,0,0,1.39-2c0-.67-.28-2.07-1.19-2.07,0,0-.45,0-.45.1Z"/>
        <path class="cls-3" d="M64.9,92.83V90.3c0-1.81-.17-3-.17-4.8v-.65c2-.17,2.26,0,2.26.25,0,.09-.06.28-.15.32H65.45c-.09,0-.09.06-.09.1,0,1.35.13,2.34.21,3.73a14.38,14.38,0,0,0,1.47,0c.44,0,.73.75.14.75H65.57l0,3c.31.08,1.92-.24,1.92.32a.31.31,0,0,1-.24.33h-.06c-.47,0-2.28.18-2.29-.19Z"/>
        <path class="cls-3" d="M70.92,84.83H71c.51,0,1.12.3,1.12.92,0,.13,0,.28-.21.28-.42,0-.49-.52-1-.59h-.07c-1.75,0-3,8,0,8.12h.07c.91,0,.56-1.18,1.28-1.18h0a.28.28,0,0,1,.31.28c0,.23-.08.23-.2.49a1.44,1.44,0,0,1-1.42.94h-.12c-2.45-.11-2.54-3.51-2.38-5.16C68.51,87.68,69.05,84.83,70.92,84.83Z"/>
        <path class="cls-3" d="M74.38,89c-.23-.46-1.31-2.63-1.51-3.09-.33-.73.38-.83.51-.47l1.45,3,.85-3.37c0-.36.82-.33.82.09v0l-1.26,3.87.44,5.17c0,.2-.16.28-.34.28s-.35-.07-.38-.25A45.76,45.76,0,0,0,74.38,89Z"/>
        <path class="cls-3" d="M79.78,84.83h.09c.51,0,1.12.3,1.12.92,0,.13,0,.28-.22.28-.42,0-.48-.52-1-.59h-.08c-1.74,0-2.94,8,0,8.12h.06c.92,0,.56-1.18,1.29-1.18h0a.28.28,0,0,1,.31.28c0,.23-.08.23-.19.49a1.45,1.45,0,0,1-1.43.94h-.11c-2.46-.11-2.55-3.51-2.38-5.16C77.36,87.68,77.91,84.83,79.78,84.83Z"/>
        <path class="cls-3" d="M82.94,84.32c.21,0,.37.26.42.45.11,2.88.09,5.79.35,8.68a6.75,6.75,0,0,1,1.53-.27c.22,0,.43.07.43.32a.34.34,0,0,1-.26.37c-.43.15-1,.13-1.45.25a2.14,2.14,0,0,1-.54.17.48.48,0,0,1-.4-.35c-.15-1.52-.09-3.16-.16-4.67l-.17-3.14V84.51A.26.26,0,0,1,82.94,84.32Z"/>
        <path class="cls-3" d="M86.52,92.83V90.3c0-1.81-.18-3-.18-4.8v-.65c2-.17,2.27,0,2.27.25a.43.43,0,0,1-.16.32H87.07c-.09,0-.09.06-.09.1,0,1.35.13,2.34.2,3.73a14.55,14.55,0,0,0,1.48,0c.43,0,.72.75.14.75H87.18l0,3c.3.08,1.92-.24,1.92.32a.32.32,0,0,1-.24.33h-.07c-.47,0-2.27.18-2.29-.19Z"/>
      </g>
      <g class="cls-2">
        <path class="cls-5" d="M60.32,89.06c0-.4-.06-2.71-.08-3.31,0-.13-.08-1.25-.09-1.39v0c0-.29.33-.37.58-.37,1.76,0,2.38,1.26,2.38,2.73a2.73,2.73,0,0,1-1.26,2.46c1.47.65,1.82,2.73,1.82,4.15,0,.23-.14.32-.37.32s-.21,0-.28-.2c-.06-1-.3-3.65-1.78-3.65h-.13c-.14,1.44,0,2.89-.11,4.34a.42.42,0,0,1-.68,0C60.34,93.33,60.34,89.82,60.32,89.06Zm.71-.31a2,2,0,0,0,1.39-2c0-.67-.28-2.07-1.19-2.07,0,0-.45,0-.45.1Z"/>
        <path class="cls-5" d="M64.9,92.83V90.3c0-1.81-.17-3-.17-4.8v-.65c2-.17,2.26,0,2.26.25,0,.09-.06.28-.15.32H65.45c-.09,0-.09.06-.09.1,0,1.35.13,2.34.21,3.73a14.38,14.38,0,0,0,1.47,0c.44,0,.73.75.14.75H65.57l0,3c.31.08,1.92-.24,1.92.32a.31.31,0,0,1-.24.33h-.06c-.47,0-2.28.18-2.29-.19Z"/>
        <path class="cls-5" d="M70.92,84.83H71c.51,0,1.12.3,1.12.92,0,.13,0,.28-.21.28-.42,0-.49-.52-1-.59h-.07c-1.75,0-3,8,0,8.12h.07c.91,0,.56-1.18,1.28-1.18h0a.28.28,0,0,1,.31.28c0,.23-.08.23-.2.49a1.44,1.44,0,0,1-1.42.94h-.12c-2.45-.11-2.54-3.51-2.38-5.16C68.51,87.68,69.05,84.83,70.92,84.83Z"/>
        <path class="cls-5" d="M74.38,89c-.23-.46-1.31-2.63-1.51-3.09-.33-.73.38-.83.51-.47l1.45,3,.85-3.37c0-.36.82-.33.82.09v0l-1.26,3.87.44,5.17c0,.2-.16.28-.34.28s-.35-.07-.38-.25A45.76,45.76,0,0,0,74.38,89Z"/>
        <path class="cls-5" d="M79.78,84.83h.09c.51,0,1.12.3,1.12.92,0,.13,0,.28-.22.28-.42,0-.48-.52-1-.59h-.08c-1.74,0-2.94,8,0,8.12h.06c.92,0,.56-1.18,1.29-1.18h0a.28.28,0,0,1,.31.28c0,.23-.08.23-.19.49a1.45,1.45,0,0,1-1.43.94h-.11c-2.46-.11-2.55-3.51-2.38-5.16C77.36,87.68,77.91,84.83,79.78,84.83Z"/>
        <path class="cls-5" d="M82.94,84.32c.21,0,.37.26.42.45.11,2.88.09,5.79.35,8.68a6.75,6.75,0,0,1,1.53-.27c.22,0,.43.07.43.32a.34.34,0,0,1-.26.37c-.43.15-1,.13-1.45.25a2.14,2.14,0,0,1-.54.17.48.48,0,0,1-.4-.35c-.15-1.52-.09-3.16-.16-4.67l-.17-3.14V84.51A.26.26,0,0,1,82.94,84.32Z"/>
        <path class="cls-5" d="M86.52,92.83V90.3c0-1.81-.18-3-.18-4.8v-.65c2-.17,2.27,0,2.27.25a.43.43,0,0,1-.16.32H87.07c-.09,0-.09.06-.09.1,0,1.35.13,2.34.2,3.73a14.55,14.55,0,0,0,1.48,0c.43,0,.72.75.14.75H87.18l0,3c.3.08,1.92-.24,1.92.32a.32.32,0,0,1-.24.33h-.07c-.47,0-2.27.18-2.29-.19Z"/>
      </g>
    </g>
    <g id="me_" data-name="me " class="cls-2">
      <g class="cls-2">
        <path class="cls-3" d="M73.49,97.13l-.72,1.78c0,.14-.33.15-.38.09l0-.08c-.17-.56-.33-1.12-.55-1.67-.11,1.26,0,2.55-.13,3.8a.33.33,0,0,1-.21,0c-.14,0-.13,0-.13-.16s.06-.36,0-4.59c0-.2.31-.35.39-.13l.82,2.24c.19-.22.77-2.11.92-2.35s.22-.12.38,0c0,0,0,2.21,0,3.15,0,.6,0,1.22,0,1.82a.22.22,0,0,1-.21.23c-.1,0-.13,0-.17-.13C73.6,99.82,73.56,98.48,73.49,97.13Z"/>
        <path class="cls-3" d="M74.63,96.52a.25.25,0,0,1,.24-.24h1.06a.36.36,0,0,1,.18.14v0c0,.13-.18.19-.29.19H75l0,2.23.73-.11h0c.32,0,.2.31-.07.35l-.67.1,0,1.75h.35c.45,0,.77-.15.79.16s-1.48.2-1.48.07Z"/>
        <path class="cls-3" d="M77.05,96c.09,0,.2,0,.22.13s0,.58,0,.68c0,1.38.15,2.18.15,3.57,0,.1,0,.21-.13.21s-.22-.26-.22-.42v0c-.1-1.54-.07-2.48-.24-4C76.91,96,76.94,96,77.05,96Zm.22,4.92a.3.3,0,0,1,.3.33c0,.14-.14.17-.26.17s-.26-.11-.26-.3S77.19,100.91,77.27,100.91Z"/>
      </g>
    </g>
  </g>
  <g id="_locally_sourced_from_devon_" data-name=" locally sourced from devon " class="cls-2">
    <g class="cls-2">
      <path class="cls-6" d="M49.32,8.06c.08-.09.17-.23.31-.23s.12.06.12.14-.4.53-.46.71a3.62,3.62,0,0,0-.23,1.42,3.31,3.31,0,0,0,.19,1.25,1.65,1.65,0,0,0,.29.45l.2.2c.07.06.19.07.19.19s-.11.07-.16.07a.6.6,0,0,1-.42-.26A3.06,3.06,0,0,1,48.77,10,3,3,0,0,1,49.32,8.06Z"/>
      <path class="cls-6" d="M50.62,12.25s-.07-2.83-.07-3.2c0-.11-.07-.94-.07-1.05V8a.09.09,0,0,1,0-.09l.1,0c.1,0,.14,0,.18.12a2.6,2.6,0,0,1,0,.56c0,1.12,0,2.25.1,3.38h0c.23,0,.45-.08.69-.08.08,0,.18,0,.18.13a.11.11,0,0,1-.11.12Z"/>
      <path class="cls-6" d="M52.77,7.88c1,.11.84,2.44.78,3.17,0,.4-.24,1.09-.79,1.09-1,0-1-1.65-1-2.29S51.8,7.88,52.77,7.88Zm-.71,2c0,1.6.3,2,.68,2,.54,0,.55-1.39.55-1.74v0c0-.42-.12-1.95-.64-1.95s-.58.91-.58,1.18S52.06,9.67,52.06,9.83Z"/>
      <path class="cls-6" d="M55.5,8.14c0,.19-.31.15-.39.15h0c-.54,0-.77,1.1-.77,1.72a1.79,1.79,0,0,0,.53,1.6c.23.2.59,0,.67.14s-.09.26-.26.26c-1.25,0-1.44-1.67-1.19-2.74.13-.57.47-1.33,1.19-1.33C55.36,7.94,55.5,8,55.5,8.14Z"/>
      <path class="cls-6" d="M56.46,11.11l0,0-.1.62c0,.08,0,.32-.16.32s-.12-.14-.12-.2l.57-4c0-.11.07-.26.21-.26a.23.23,0,0,1,.17.08l0,.12a27.28,27.28,0,0,1,.61,3.83l0,.36h0c0,.1-.06.15-.16.15h0s-.09,0-.09,0l-.14-1Zm.08-.34h.69l-.37-2.55Z"/>
      <path class="cls-6" d="M58.2,12.25s-.07-2.83-.07-3.2c0-.11-.06-.94-.07-1.05V8a.09.09,0,0,1,0-.09l.1,0c.1,0,.15,0,.18.12a2.09,2.09,0,0,1,0,.56c0,1.12,0,2.25.11,3.38h0c.23,0,.44-.08.68-.08.09,0,.19,0,.19.13a.12.12,0,0,1-.11.12Z"/>
      <path class="cls-6" d="M59.94,12.25s-.07-2.83-.07-3.2c0-.11-.07-.94-.07-1.05V8a.09.09,0,0,1,0-.09l.1,0c.1,0,.14,0,.18.12a3.44,3.44,0,0,1,0,.56c0,1.12,0,2.25.1,3.38h0c.23,0,.45-.08.69-.08.08,0,.18,0,.18.13a.11.11,0,0,1-.11.12Z"/>
      <path class="cls-6" d="M61.64,12.25c0-.41.08-1.83.08-2.05l-.47-1.27s-.17-.45-.19-.49a.3.3,0,0,1,0-.14c0-.06.06-.09.13-.09a.25.25,0,0,1,.24.12c.17.48.29,1,.49,1.51.06-.05.58-1.27.57-1.27s0-.32.24-.32.16,0,.16.1v0c-.22.62-.63,1.21-.8,1.83L62,12.31c0,.09-.09.1-.18.1h0s-.11,0-.13-.08S61.64,12.29,61.64,12.25Z"/>
      <path class="cls-6" d="M65.29,11.25c.22.07,0,.55.29.71h0c.31,0,.39-.42.39-.65a2.37,2.37,0,0,0-.14-.91C65.6,9.81,65,9.32,65,8.64c0-.31.19-.82.57-.82s.64.19.64.48c0,.1,0,.16-.14.16s-.15-.33-.45-.33-.3.39-.3.58c0,.56.46.95.71,1.41a2.13,2.13,0,0,1,.21,1.45c-.09.28-.34.67-.67.67s-.53-.5-.53-.83A.18.18,0,0,1,65.29,11.25Z"/>
      <path class="cls-6" d="M67.69,7.88c1,.11.84,2.44.78,3.17,0,.4-.24,1.09-.79,1.09-1,0-1-1.65-1-2.29S66.72,7.88,67.69,7.88Zm-.71,2c0,1.6.3,2,.69,2s.54-1.39.54-1.74v0c0-.42-.12-1.95-.64-1.95S67,9.07,67,9.34,67,9.67,67,9.83Z"/>
      <path class="cls-6" d="M69.9,12h-.13c-.68-.09-.73-1.75-.78-3.67V8c0-.12.29-.12.33,0s-.15,3.73.6,3.73c.19,0,.25-.32.26-.46,0-.68,0-2.21,0-3.27,0-.09.06-.1.16-.1s.16,0,.16.11c0,1,0,1.94,0,2.95C70.47,11.43,70.47,12,69.9,12Z"/>
      <path class="cls-6" d="M71,11.81c0-1.23,0-2.47.08-3.7,0-.26.1-.26.32-.26h.06a.77.77,0,0,1,.82.82v.06a1.32,1.32,0,0,1-.46,1.11,1.93,1.93,0,0,1,.17.21c.25.32.19,1.11.22,1.49,0,0,0,.28,0,.31v.05c0,.09-.09.1-.16.1h0C72,12,72,12,72,11.92s0-1-.06-1.2-.08-.64-.41-.64h-.09c0,.05,0,.27,0,.32s0,1.27,0,1.73c0,.11,0,.22-.12.22a.2.2,0,0,1-.17-.08Zm.43-2.12c.39,0,.54-.71.54-1s-.13-.59-.44-.59a.12.12,0,0,0-.13.14c0,.48,0,.88,0,1.37C71.39,9.69,71.43,9.69,71.46,9.69Z"/>
      <path class="cls-6" d="M74.14,8.14c0,.19-.32.15-.4.15h0c-.53,0-.77,1.1-.77,1.72a1.79,1.79,0,0,0,.53,1.6c.23.2.59,0,.68.14s-.1.26-.27.26c-1.25,0-1.44-1.67-1.19-2.74.14-.57.48-1.33,1.19-1.33C74,7.94,74.14,8,74.14,8.14Z"/>
      <path class="cls-6" d="M74.68,8.3a.2.2,0,0,1,.19-.19h.87a.33.33,0,0,1,.15.11v0c0,.11-.15.16-.23.16H75l0,1.82.59-.09h0c.25,0,.15.25-.07.28l-.54.09,0,1.43h.29c.36,0,.63-.13.65.13s-1.22.16-1.22.06Z"/>
      <path class="cls-6" d="M76.29,11.19c0-.47,0-2.66,0-3.13V8a.32.32,0,0,1,.16-.3h0a.92.92,0,0,1,.62.2,2.87,2.87,0,0,1,.66,2.21c0,1.06-.29,2.07-1.19,2.18-.18,0-.3,0-.3-.21Zm.32-1.06c0,.49,0,1.32,0,1.88.68-.1.86-1.19.86-1.79,0-.43,0-2.12-.79-2.12h0C76.63,8.4,76.61,9.83,76.61,10.13Z"/>
      <path class="cls-6" d="M80,8.43c0-.28.18-.45.63-.48.13,0,.56-.06.57.17,0,.07-.09.1-.15.1s-.71-.07-.71.23v0c0,.36.05.79.09,1.11h.3c.09,0,.41-.13.41.07s-.57.18-.7.23c0,.6.1,1.2.11,1.87v0c0,.23-.26.18-.29,0-.06-.54-.23-2.3-.26-3.37Z"/>
      <path class="cls-6" d="M81.72,11.81c0-1.23,0-2.47.08-3.7,0-.26.1-.26.32-.26h.06a.78.78,0,0,1,.83.82v.06a1.33,1.33,0,0,1-.47,1.11,2,2,0,0,1,.18.21c.24.32.18,1.11.21,1.49,0,0,0,.28,0,.31v.05c0,.09-.09.1-.16.1h0c-.06,0-.13,0-.16-.08s0-1-.06-1.2-.08-.64-.41-.64h-.09c0,.05,0,.27,0,.32s0,1.27,0,1.73c0,.11,0,.22-.12.22a.2.2,0,0,1-.17-.08Zm.43-2.12c.39,0,.54-.71.54-1s-.12-.59-.43-.59a.13.13,0,0,0-.14.14c0,.48,0,.88,0,1.37C82.08,9.69,82.12,9.69,82.15,9.69Z"/>
      <path class="cls-6" d="M84.57,7.88c1,.11.84,2.44.78,3.17,0,.4-.24,1.09-.79,1.09-1,0-1-1.65-1-2.29S83.6,7.88,84.57,7.88Zm-.71,2c0,1.6.3,2,.69,2s.54-1.39.54-1.74v0c0-.42-.11-1.95-.64-1.95s-.58.91-.58,1.18S83.86,9.67,83.86,9.83Z"/>
      <path class="cls-6" d="M87.73,8.81l-.59,1.45c0,.11-.27.12-.32.08s0-.05,0-.07c-.15-.46-.27-.92-.45-1.36-.1,1,0,2.08-.11,3.1a.27.27,0,0,1-.17,0c-.12,0-.11,0-.11-.13s0-.29,0-3.75c0-.16.25-.29.31-.11L87,9.89c.16-.18.64-1.72.76-1.92s.17-.09.31,0,0,1.81,0,2.58c0,.49,0,1,0,1.49a.17.17,0,0,1-.17.19c-.09,0-.11,0-.14-.11C87.82,11,87.78,9.91,87.73,8.81Z"/>
      <path class="cls-6" d="M90.3,11.19V8a.3.3,0,0,1,.16-.3h.05a.88.88,0,0,1,.61.2,2.8,2.8,0,0,1,.66,2.21c0,1.06-.29,2.07-1.19,2.18-.18,0-.29,0-.29-.21Zm.31-1.06c0,.49,0,1.32,0,1.88.68-.1.87-1.19.87-1.79,0-.43,0-2.12-.79-2.12h0C90.64,8.4,90.61,9.83,90.61,10.13Z"/>
      <path class="cls-6" d="M92.33,8.3a.21.21,0,0,1,.2-.19h.86a.33.33,0,0,1,.15.11v0c0,.11-.14.16-.23.16h-.66l0,1.82.59-.09h0c.25,0,.16.25-.06.28l-.55.09,0,1.43H93c.36,0,.63-.13.65.13s-1.22.16-1.22.06Z"/>
      <path class="cls-6" d="M94.05,7.84s.21-.11.25-.07a.29.29,0,0,1,.11.11l.46,3.37c.18-1,.38-2.27.55-3.27,0-.19.08-.21.18-.21a.15.15,0,0,1,.17.11c-.23.9-.37,1.84-.52,2.76L95,12.05c0,.1-.09.1-.17.1s-.12,0-.14-.07C94.43,10.71,94.32,9.23,94.05,7.84Z"/>
      <path class="cls-6" d="M97.1,7.88c1,.11.83,2.44.78,3.17,0,.4-.24,1.09-.79,1.09-1,0-1-1.65-1-2.29S96.13,7.88,97.1,7.88Zm-.71,2c0,1.6.29,2,.68,2,.54,0,.55-1.39.55-1.74v0c0-.42-.12-1.95-.64-1.95s-.59.91-.59,1.18Z"/>
      <path class="cls-6" d="M98.53,8.27c0-.22.29-.35.41,0l1.12,3c0-.24,0-1.59.08-2.13a5.16,5.16,0,0,1,.06-1c0-.06.06-.06.15-.06s.14,0,.13.13c0,.57-.1,1.14-.12,1.71,0,.32-.06,1.84-.06,2.15,0,.12-.21.05-.26,0s-.09-.22-1.26-3.33l0,3.36c0,.17-.28.15-.28,0Z"/>
      <path class="cls-6" d="M101.4,12a.56.56,0,0,1-.42.26s-.16,0-.16-.07.12-.13.2-.19l.19-.2a1.65,1.65,0,0,0,.29-.45,3.31,3.31,0,0,0,.2-1.25,3.81,3.81,0,0,0-.23-1.42C101.4,8.5,101,8,101,8s0-.14.12-.14.22.14.3.23A3,3,0,0,1,102,10,3.06,3.06,0,0,1,101.4,12Z"/>
    </g>
  </g>
</svg>
