<svg height="512" viewBox="0 0 512 512" width="512" xmlns="http://www.w3.org/2000/svg"><g id="Flat"><path d="m256 224a24 24 0 1 1 24-24 24.028 24.028 0 0 1 -24 24zm0-32a8 8 0 1 0 8 8 8.009 8.009 0 0 0 -8-8z" fill="#d6d6d4"/><path d="m191.339 120-16-40-24 16 16 32 8 48-28.724-40.213a18.954 18.954 0 0 0 -26.8-4.147 18.953 18.953 0 0 0 -2.794 27.756l36.712 41.3a31.051 31.051 0 0 0 33.025 8.828 31.049 31.049 0 0 0 19.921-38.378z" fill="#feb784"/><path d="m103.339 344v112h32l8-112" fill="#feb784"/><path d="m151.34 224 16 120h-96l5.05-50.53 1.1-10.95a83.385 83.385 0 0 1 11.42-34.48 83.029 83.029 0 0 0 11.33-51.91l-4.9-44.13v-32h40l27.68 27.68a14.786 14.786 0 0 1 4.32 10.43 28.957 28.957 0 0 1 -16 25.89z" fill="#f59898"/><path d="m167.34 344h-96l5.05-50.53a440.733 440.733 0 0 0 74.95-81.3v11.83z" fill="#ed9191"/><path d="m119.339 200 29.091 64 10.909 40h-40v-32l-32-64 6.449-70.945a18.754 18.754 0 0 1 18.676-17.055 18.753 18.753 0 0 1 18.389 22.431z" fill="#fec9a3"/><path d="m135.339 456 22.111 11.056a11.056 11.056 0 0 1 4.945 14.833 11.057 11.057 0 0 1 -9.889 6.111h-49.167v-32z" fill="#f59898"/><path d="m175.339 80.655-9.329 6.4-2.928 15.73-23.594-4.385-4.149 21.6h-40s9.68-59.116 12.143-68.249c4.081-15.149 13.72-30 37.315-25.6a33.509 33.509 0 0 1 14.934 6.649c8.781 6.985 12.976 18.273 10.671 30.66z" fill="#fec9a3"/><path d="m159.731 32.8c-5.446 23.144-18.969 44.59-40.392 55.2v80h-56a76.367 76.367 0 0 1 .173-32.342 83.534 83.534 0 0 1 10.856-26.058 83.675 83.675 0 0 0 7.17-14.147 83.5 83.5 0 0 0 4.374-15.253l4.376-23.516a40 40 0 0 1 46.644-32.006l7.865 1.464a33.509 33.509 0 0 1 14.934 6.658z" fill="#ffb531"/><path d="m87.339 344-48 88 24 16 72-104z" fill="#fec9a3"/><path d="m63.339 448 12.787 25.574a9.968 9.968 0 0 1 -1.867 11.506 9.968 9.968 0 0 1 -7.049 2.92h-.45a9.966 9.966 0 0 1 -6.121-2.1l-37.3-29.024 16-24.875z" fill="#f59898"/><path d="m424 488h-56.108a32 32 0 0 1 -31.238-38.942l23.346-105.058h40l-24 104h48z" fill="#804a32"/><path d="m373.953 128.479c-18.054-3-32.913 8.377-35.77 26.713l-10.183 14.639 7.333 5.5-3.352 19.659 23.108 3.845-3.089 41.165h40v-48s7.493-22.591 7.8-26.554c1.229-15.758-2.74-33.121-25.847-36.967z" fill="#fec9a3"/><path d="m400 344h-64v-88a32 32 0 0 1 32-32 32 32 0 0 1 32 32z" fill="#348fd9"/><path d="m272.294 382.705 15.706 73.295h40l-16-72h48a40 40 0 0 0 40-40h-96.416a32 32 0 0 0 -31.29 38.705z" fill="#92563a"/><path d="m288 456-26.534 13.267a9.888 9.888 0 0 0 -5.466 8.844 9.888 9.888 0 0 0 9.889 9.889h62.111v-32z" fill="#d6d6d4"/><path d="m424 448 24-8 35.944 28.755a10.806 10.806 0 0 1 4.056 8.439 10.806 10.806 0 0 1 -10.806 10.806h-53.194z" fill="#d6d6d4"/><path d="m376 121.471c-27.232-8.628-48 23.51-48 23.51s30.426 2.184 46.626-4.164l9.374-3.673c-1.745 5.128-8.667 7.51-9.333 23.836 5.666-4.9 13.926-6.823 17.333-1.632 3 4.571.667 12.408-9.667 14.693.869 2.468 3.776 6.418 4.981 8.778l4.686 9.181 7.855-15.389a38.953 38.953 0 0 0 -22.213-54.6q-.807-.275-1.642-.54z" fill="#92563a"/><path d="m368 296-23.457 35.186a28.778 28.778 0 0 1 -23.943 12.814 28.779 28.779 0 0 1 -25.218-14.914l-31.382-57.086-16.478-4.119a20.494 20.494 0 0 1 -15.522-19.881h48l40 56 16-24z" fill="#fec9a3"/><path d="m336 280 15.5-25.837a17.836 17.836 0 0 1 23.271-6.777 17.837 17.837 0 0 1 7.318 25.13l-14.089 23.484z" fill="#348fd9"/><path d="m232 216h48a0 0 0 0 1 0 0v24a8 8 0 0 1 -8 8h-32a8 8 0 0 1 -8-8v-24a0 0 0 0 1 0 0z" fill="#4d5e78"/><path d="m296 176-16 40 4.765 1.588a21.5 21.5 0 0 0 26.765-12.414 21.5 21.5 0 0 0 -13.165-28.386z" fill="#4d5e78"/><path d="m270.806 163.794a8 8 0 0 0 -6.806-3.794h-16a8 8 0 0 0 -7.155 11.578l8 16a8 8 0 0 0 14.31 0l8-16a8 8 0 0 0 -.349-7.784z" fill="#e0e0de"/><g fill="#fae890"><path d="m248 120h16v24h-16z"/><path d="m215.999 132.686h16.001v22.627h-16.001z" transform="matrix(.707 -.707 .707 .707 -36.215 200.569)"/><path d="m276.686 135.999h22.627v16.001h-22.627z" transform="matrix(.707 -.707 .707 .707 -17.47 245.823)"/></g></g></svg>