<?xml version="1.0" encoding="utf-8"?>
<!-- Generator: Adobe Illustrator 23.1.1, SVG Export Plug-In . SVG Version: 6.00 Build 0)  -->
<svg version="1.1" id="Layer_1" xmlns="http://www.w3.org/2000/svg" xmlns:xlink="http://www.w3.org/1999/xlink" x="0px" y="0px"
	 viewBox="0 0 185 159" style="enable-background:new 0 0 185 159;" xml:space="preserve">
<style type="text/css">
	.st0{fill:#3B332E;stroke:#3B332E;stroke-width:0.2736;}
	.st1{enable-background:new    ;}
	.st2{fill:#3B332E;}
	.st3{fill:none;stroke:#3B332E;stroke-width:0.2723;}
	.st4{fill:none;}
	.st5{fill:none;stroke:#3B332E;stroke-width:0.4085;}
	.st6{fill:#65433D;}
	.st7{fill:none;stroke:#3B332E;stroke-width:3;}
</style>
<g id="Group_11" transform="translate(-20.306 -19.513)">
	<g class="st1">
		<path class="st2" d="M59.8,42.4c-0.7-1.4-4.1-8.3-4.8-9.7c-1-2.3,1.2-2.6,1.6-1.5l4.6,9.6l2.7-10.6c0.2-1.1,2.6-1,2.6,0.3v0.2
			l-4,12.2L63.9,59c0,0.6-0.5,0.9-1.1,0.9c-0.6,0-1.1-0.2-1.2-0.8C61,54.1,60.9,46.8,59.8,42.4z"/>
		<path class="st2" d="M76.6,27.8c7.2,0.8,6.1,17.8,5.7,23.2c-0.3,2.9-1.8,8-5.8,8c-7.1,0-7.4-12.1-7.4-16.8
			C69.1,37.2,69.5,27.8,76.6,27.8z M71.4,42.1c0,11.7,2.2,14.9,5,14.9c3.9,0,4-10.2,4-12.7v-0.2c0-3.1-0.8-14.3-4.6-14.3
			c-3,0-4.3,6.7-4.3,8.7C71.4,39.8,71.4,41,71.4,42.1z"/>
		<path class="st2" d="M92.7,57.7c-0.3,0-0.6,0-1-0.1c-4.9-0.6-5.3-12.8-5.7-26.8l-0.1-2v-0.2c0-0.9,2.1-0.8,2.4,0
			c0.7,1.2-1.1,27.2,4.4,27.2c1.4,0,1.8-2.3,1.9-3.4c0.1-5,0-16.1-0.2-23.8C94.7,28,95,28,95.7,28c0.6,0,1.2,0.1,1.2,0.8
			c0.2,7-0.1,14.2,0.1,21.5C96.9,53.8,96.9,57.7,92.7,57.7z"/>
	</g>
	<g class="st1">
		<path class="st2" d="M121.2,29.5h0.3c1.6,0.1,3.4,0.9,3.4,2.8c0,0.4-0.1,0.9-0.7,0.9c-1.3,0-1.5-1.6-2.9-1.8c0,0-0.1,0-0.2,0
			c-5.3,0-9,24.5,0,24.9h0.2c2.8,0,1.7-3.6,3.9-3.6h0.1c0.5,0,0.9,0.3,0.9,0.9c0,0.7-0.2,0.7-0.6,1.5c-0.9,1.9-2.3,2.9-4.4,2.9h-0.4
			c-7.5-0.4-7.8-10.8-7.3-15.8C113.8,38.2,115.4,29.5,121.2,29.5z"/>
		<path class="st2" d="M133,51l-0.2,0.2l-0.7,4.4c-0.1,0.6,0,2.3-1.2,2.3c-0.5,0-0.9-1-0.9-1.4c4.1-28.3,4.1-28.4,4.1-28.4
			c0.2-0.7,0.5-1.8,1.4-1.8c0.4,0,1,0.2,1.2,0.6l0.3,0.8c2.3,8.9,3.3,18.1,4.4,27.3l0.2,2.5c0,0,0,0,0,0.1c-0.3,0.7-0.4,1.1-1.2,1.1
			h-0.1c-0.2,0-0.6,0-0.7-0.3l-1-7.4H133z M133.6,48.6l4.9,0.1l-2.6-18.2L133.6,48.6z"/>
		<path class="st2" d="M146.1,30.8c-0.1-1.6,2.1-2.5,2.9-0.2l8,21.6c0-1.7,0.4-11.3,0.6-15.1c0.1-2.3,0-4.7,0.5-6.9
			c0-0.4,0.4-0.4,1-0.4c0.9,0,1,0.1,1,0.9c-0.1,4.1-0.7,8.1-0.9,12.2c-0.1,2.3-0.5,13.1-0.5,15.3c-0.3,0.8-1.5,0.4-1.8-0.3
			c-0.4-0.8-0.7-1.6-9-23.7L147.7,58c0,1.2-2,1.1-2,0.2L146.1,30.8z"/>
	</g>
	<g class="st1">
		<path class="st2" d="M25.7,101.5c0-2.4-0.4-16.4-0.5-20c0-0.8-0.5-7.5-0.5-8.4v-0.3c0-1.8,2-2.2,3.5-2.2
			c10.6,0,14.4,7.6,14.4,16.5c0,7.1-2.7,11.4-7.6,14.9c8.9,3.9,11,16.5,11,25.1c0,1.4-0.8,1.9-2.2,1.9c-0.9,0-1.3,0-1.7-1.2
			c-0.4-5.8-1.8-22.1-10.8-22.1c-0.1,0-0.6,0.1-0.8,0.1c-0.8,8.7-0.2,17.5-0.7,26.3c-1,1.4-3.2,1.5-4.1,0
			C25.8,127.4,25.8,106.2,25.7,101.5z M29.9,99.7c5.5-1.1,8.5-7.1,8.5-11.9c0-4.1-1.7-12.5-7.2-12.5c-0.3,0-2.7,0-2.7,0.6L29.9,99.7
			z"/>
		<path class="st2" d="M53.4,124.3v-15.2c0-11-1.1-18.1-1.1-29.1v-3.9c12.3-1,13.7-0.2,13.7,1.5c0,0.5-0.4,1.7-0.9,1.9h-8.4
			c-0.5,0-0.5,0.4-0.5,0.6c0,8.2,0.8,14.2,1.2,22.6c1.2,0.3,7.6,0.1,8.9,0.1c2.6,0.1,4.4,4.5,0.8,4.5h-9.8l0.2,18
			c1.8,0.5,11.6-1.5,11.6,1.9c0,0.9-0.5,1.8-1.5,2h-0.4c-2.8,0.2-13.8,1.1-13.9-1.2L53.4,124.3z"/>
		<path class="st2" d="M89.8,76h0.5c3.1,0.2,6.8,1.8,6.8,5.5c0,0.8-0.2,1.7-1.3,1.7c-2.5-0.1-2.9-3.2-5.8-3.5
			c-0.1,0-0.2-0.1-0.5-0.1c-10.5,0-17.8,48.4-0.1,49.1h0.4c5.5,0,3.4-7.2,7.8-7.2h0.2c1.1,0,1.8,0.6,1.8,1.7c-0.1,1.4-0.5,1.4-1.2,3
			c-1.8,3.8-4.5,5.7-8.6,5.7h-0.7c-14.9-0.7-15.4-21.3-14.4-31.3C75.2,93.2,78.5,76,89.8,76z"/>
		<path class="st2" d="M110.8,101.1c-1.4-2.8-7.9-15.9-9.2-18.7c-2-4.4,2.3-5,3.1-2.8l8.8,18.5l5.2-20.4c0.3-2.2,4.9-2,4.9,0.5v0.3
			l-7.6,23.4l2.7,31.3c0,1.2-1,1.7-2.1,1.7c-1.1,0-2.1-0.4-2.3-1.5C113.2,123.6,113,109.6,110.8,101.1z"/>
		<path class="st2" d="M143.4,76h0.5c3.1,0.2,6.8,1.8,6.8,5.5c0,0.8-0.2,1.7-1.3,1.7c-2.5-0.1-2.9-3.2-5.8-3.5
			c-0.1,0-0.2-0.1-0.5-0.1c-10.5,0-17.8,48.4-0.1,49.1h0.4c5.5,0,3.4-7.2,7.8-7.2h0.2c1.1,0,1.8,0.6,1.8,1.7c-0.1,1.4-0.5,1.4-1.2,3
			c-1.8,3.8-4.5,5.7-8.6,5.7h-0.7c-14.9-0.7-15.4-21.3-14.4-31.3C128.8,93.2,132.1,76,143.4,76z"/>
		<path class="st2" d="M162.6,72.9c1.2,0,2.2,1.5,2.5,2.7c0.6,17.4,0.5,35,2.1,52.5c2.3-0.6,6.2-1.6,9.2-1.6c1.4,0,2.6,0.4,2.6,1.9
			c0,1-0.2,1.8-1.5,2.2c-2.6,0.9-6.1,0.8-8.8,1.5c-1,0.2-2.1,1-3.3,1c-0.9,0-2.2-1.1-2.4-2.1c-0.9-9.2-0.5-19.2-1-28.3l-1-19v-9.8
			C161.4,73.2,161.9,72.9,162.6,72.9z"/>
		<path class="st2" d="M184.2,124.3v-15.2c0-11-1.1-18.1-1.1-29.1v-3.9c12.3-1,13.7-0.2,13.7,1.5c0,0.5-0.4,1.7-0.9,1.9h-8.4
			c-0.5,0-0.5,0.4-0.5,0.6c0,8.2,0.8,14.2,1.2,22.6c1.2,0.3,7.6,0.1,8.9,0.1c2.6,0.1,4.4,4.5,0.8,4.5h-9.8l0.2,18
			c1.8,0.5,11.6-1.5,11.6,1.9c0,0.9-0.5,1.8-1.5,2h-0.4c-2.8,0.2-13.8,1.1-13.9-1.2L184.2,124.3z"/>
	</g>
	<g class="st1">
		<path class="st7" d="M25.7,101.5c0-2.4-0.4-16.4-0.5-20c0-0.8-0.5-7.5-0.5-8.4v-0.3c0-1.8,2-2.2,3.5-2.2
			c10.6,0,14.4,7.6,14.4,16.5c0,7.1-2.7,11.4-7.6,14.9c8.9,3.9,11,16.5,11,25.1c0,1.4-0.8,1.9-2.2,1.9c-0.9,0-1.3,0-1.7-1.2
			c-0.4-5.8-1.8-22.1-10.8-22.1c-0.1,0-0.6,0.1-0.8,0.1c-0.8,8.7-0.2,17.5-0.7,26.3c-1,1.4-3.2,1.5-4.1,0
			C25.8,127.4,25.8,106.2,25.7,101.5z M29.9,99.7c5.5-1.1,8.5-7.1,8.5-11.9c0-4.1-1.7-12.5-7.2-12.5c-0.3,0-2.7,0-2.7,0.6L29.9,99.7
			z"/>
		<path class="st7" d="M53.4,124.3v-15.2c0-11-1.1-18.1-1.1-29.1v-3.9c12.3-1,13.7-0.2,13.7,1.5c0,0.5-0.4,1.7-0.9,1.9h-8.4
			c-0.5,0-0.5,0.4-0.5,0.6c0,8.2,0.8,14.2,1.2,22.6c1.2,0.3,7.6,0.1,8.9,0.1c2.6,0.1,4.4,4.5,0.8,4.5h-9.8l0.2,18
			c1.8,0.5,11.6-1.5,11.6,1.9c0,0.9-0.5,1.8-1.5,2h-0.4c-2.8,0.2-13.8,1.1-13.9-1.2L53.4,124.3z"/>
		<path class="st7" d="M89.8,76h0.5c3.1,0.2,6.8,1.8,6.8,5.5c0,0.8-0.2,1.7-1.3,1.7c-2.5-0.1-2.9-3.2-5.8-3.5
			c-0.1,0-0.2-0.1-0.5-0.1c-10.5,0-17.8,48.4-0.1,49.1h0.4c5.5,0,3.4-7.2,7.8-7.2h0.2c1.1,0,1.8,0.6,1.8,1.7c-0.1,1.4-0.5,1.4-1.2,3
			c-1.8,3.8-4.5,5.7-8.6,5.7h-0.7c-14.9-0.7-15.4-21.3-14.4-31.3C75.2,93.2,78.5,76,89.8,76z"/>
		<path class="st7" d="M110.8,101.1c-1.4-2.8-7.9-15.9-9.2-18.7c-2-4.4,2.3-5,3.1-2.8l8.8,18.5l5.2-20.4c0.3-2.2,4.9-2,4.9,0.5v0.3
			l-7.6,23.4l2.7,31.3c0,1.2-1,1.7-2.1,1.7c-1.1,0-2.1-0.4-2.3-1.5C113.2,123.6,113,109.6,110.8,101.1z"/>
		<path class="st7" d="M143.4,76h0.5c3.1,0.2,6.8,1.8,6.8,5.5c0,0.8-0.2,1.7-1.3,1.7c-2.5-0.1-2.9-3.2-5.8-3.5
			c-0.1,0-0.2-0.1-0.5-0.1c-10.5,0-17.8,48.4-0.1,49.1h0.4c5.5,0,3.4-7.2,7.8-7.2h0.2c1.1,0,1.8,0.6,1.8,1.7c-0.1,1.4-0.5,1.4-1.2,3
			c-1.8,3.8-4.5,5.7-8.6,5.7h-0.7c-14.9-0.7-15.4-21.3-14.4-31.3C128.8,93.2,132.1,76,143.4,76z"/>
		<path class="st7" d="M162.6,72.9c1.2,0,2.2,1.5,2.5,2.7c0.6,17.4,0.5,35,2.1,52.5c2.3-0.6,6.2-1.6,9.2-1.6c1.4,0,2.6,0.4,2.6,1.9
			c0,1-0.2,1.8-1.5,2.2c-2.6,0.9-6.1,0.8-8.8,1.5c-1,0.2-2.1,1-3.3,1c-0.9,0-2.2-1.1-2.4-2.1c-0.9-9.2-0.5-19.2-1-28.3l-1-19v-9.8
			C161.4,73.2,161.9,72.9,162.6,72.9z"/>
		<path class="st7" d="M184.2,124.3v-15.2c0-11-1.1-18.1-1.1-29.1v-3.9c12.3-1,13.7-0.2,13.7,1.5c0,0.5-0.4,1.7-0.9,1.9h-8.4
			c-0.5,0-0.5,0.4-0.5,0.6c0,8.2,0.8,14.2,1.2,22.6c1.2,0.3,7.6,0.1,8.9,0.1c2.6,0.1,4.4,4.5,0.8,4.5h-9.8l0.2,18
			c1.8,0.5,11.6-1.5,11.6,1.9c0,0.9-0.5,1.8-1.5,2h-0.4c-2.8,0.2-13.8,1.1-13.9-1.2L184.2,124.3z"/>
	</g>
	<g class="st1">
		<path class="st2" d="M105.2,149.4l-4.3,10.6c-0.1,0.8-2,0.9-2.3,0.5c0,0-0.2-0.4-0.3-0.5c-1-3.4-2-6.7-3.3-10
			c-0.7,7.5,0.2,15.2-0.8,22.7c-0.4,0.3-0.8,0.3-1.2,0.3c-0.8,0-0.8-0.2-0.8-1c0-1.3,0.4-2.1,0.3-27.4c0-1.2,1.8-2.1,2.3-0.8
			l4.9,13.4c1.2-1.3,4.6-12.6,5.5-14c0.4-0.8,1.3-0.7,2.3,0c0,0,0.2,13.2,0.3,18.8c0,3.6,0.2,7.3,0.2,10.9c0,0.7-0.5,1.4-1.2,1.4
			c-0.6,0-0.8-0.2-1-0.8C105.8,165.5,105.6,157.4,105.2,149.4z"/>
		<path class="st2" d="M112,145.7c0-0.7,0.7-1.4,1.4-1.4h6.3c0.2,0,1,0.6,1.1,0.8c0,0.1,0,0.1,0,0.2c0,0.8-1.1,1.2-1.7,1.2h-4.8
			l0.2,13.3l4.3-0.6h0.2c1.9,0,1.2,1.8-0.4,2.1l-4,0.6l-0.1,10.4c0.4,0,1.7,0,2.1,0c2.7,0,4.6-0.9,4.8,0.9c0.1,1.4-8.9,1.2-8.9,0.4
			L112,145.7z"/>
		<path class="st2" d="M126.4,142.6c0.6,0,1.2,0.1,1.4,0.8c0,0.6,0.2,3.4,0.2,4c0,8.3,0.9,13,0.9,21.4c0,0.6,0,1.2-0.8,1.2
			c-1.3,0-1.3-1.6-1.4-2.5v-0.2c-0.6-9.2-0.4-14.8-1.4-23.9C125.6,142.8,125.7,142.6,126.4,142.6z M127.7,171.9c1.1,0,1.8,0.8,1.8,2
			c0,0.9-0.8,1-1.6,1c-1,0-1.6-0.6-1.6-1.8C126.4,172.6,127.3,171.9,127.7,171.9z"/>
	</g>
</g>
</svg>
