<?xml version="1.0" encoding="utf-8"?>
<!-- Generator: Adobe Illustrator 23.1.1, SVG Export Plug-In . SVG Version: 6.00 Build 0)  -->
<svg version="1.1" id="Layer_1" xmlns="http://www.w3.org/2000/svg" xmlns:xlink="http://www.w3.org/1999/xlink" x="0px" y="0px"
	 viewBox="0 0 290 76" style="enable-background:new 0 0 290 76;" xml:space="preserve">
<style type="text/css">
	.st0{fill:#3B332E;stroke:#3B332E;stroke-width:0.2736;}
	.st1{enable-background:new    ;}
	.st2{fill:#3B332E;}
	.st3{fill:none;stroke:#3B332E;stroke-width:0.2723;}
	.st4{fill:none;}
	.st5{fill:none;stroke:#3B332E;stroke-width:0.4085;}
	.st6{fill:#65433D;}
	.st7{fill:none;stroke:#3B332E;stroke-width:3;}
</style>
<g class="st1">
	<path class="st6" d="M4.7,44.8H19L4.7,26.3V16.1c2.3-6.9,9-9.5,15.7-11.3h41L61.5,32H46.2l15.1,18.5v9.7C59.9,66.7,54.4,70.4,45,72
		H4.7V44.8z"/>
	<path class="st6" d="M66.9,4.8h31.7L99.5,26h4.3l1.2-21.2h33.8L136.1,72h-31.3L103.7,52h-4.4L99.9,72H66.1L66.9,4.8z"/>
	<path class="st6" d="M163.9,71.4c-13.9-5.7-22.4-21-21.5-34c2.2-20.2,11.4-27.3,23.9-32.1l29.9-0.5c17.2,4.8,21.7,19.6,22.8,34
		c-2,14.3-5.4,27.3-20.2,32.9l-17.2,0.5L163.9,71.4z M178.8,35.7c-1.4,3.4,0.6,5.3,1.5,5.3c0.2,0.4,2,1,3.2-0.7
		C184.5,37.7,182.7,34.4,178.8,35.7z"/>
	<path class="st6" d="M223.5,4.8h27.6c3.9,0,13.2-0.1,19.6,2.9c7.4,3.8,16.2,11.1,16.2,20.7c0,8.9-3.5,20.4-8.4,25.8
		c-5.5,3.2-12.7,5.1-20.5,5.5L257.7,72h-34.2L223.5,4.8z M252,29.9c-1.4,1.6-1.8,4.4-0.1,6c3.4,1.1,4.7-1,5.3-2.2
		C256.8,31.3,255.6,29.9,252,29.9z"/>
</g>
</svg>
