<svg xmlns="http://www.w3.org/2000/svg" width="103.99" height="103.99" viewBox="0 0 103.99 103.99">
  <path id="Icon_awesome-download" data-name="Icon awesome-download" d="M43.871,0H60.119a4.863,4.863,0,0,1,4.875,4.875V39H82.806a4.054,4.054,0,0,1,2.864,6.926L54.777,76.835a3.935,3.935,0,0,1-5.545,0L18.3,45.922A4.054,4.054,0,0,1,21.164,39H39V4.875A4.863,4.863,0,0,1,43.871,0ZM103.99,76.367V99.115a4.863,4.863,0,0,1-4.875,4.875H4.875A4.863,4.863,0,0,1,0,99.115V76.367a4.863,4.863,0,0,1,4.875-4.875h29.8l9.952,9.952a10.408,10.408,0,0,0,14.745,0l9.952-9.952h29.8A4.863,4.863,0,0,1,103.99,76.367ZM78.8,94.241A4.062,4.062,0,1,0,74.743,98.3,4.074,4.074,0,0,0,78.8,94.241Zm13,0A4.062,4.062,0,1,0,87.741,98.3,4.074,4.074,0,0,0,91.8,94.241Z" fill="#fff"/>
</svg>
