<svg xmlns="http://www.w3.org/2000/svg" width="103.983" height="103.959" viewBox="0 0 103.983 103.959">
  <path id="Icon_awesome-instagram" data-name="Icon awesome-instagram" d="M52,27.564A26.654,26.654,0,1,0,78.652,54.217,26.612,26.612,0,0,0,52,27.564Zm0,43.982A17.329,17.329,0,1,1,69.326,54.217,17.36,17.36,0,0,1,52,71.546ZM85.959,26.473a6.217,6.217,0,1,1-6.217-6.217A6.2,6.2,0,0,1,85.959,26.473Zm17.653,6.31c-.394-8.328-2.3-15.7-8.4-21.782C89.137,4.923,81.76,3.021,73.432,2.6c-8.583-.487-34.309-.487-42.892,0C22.235,3,14.859,4.9,8.758,10.977S.778,24.432.36,32.76c-.487,8.583-.487,34.309,0,42.892.394,8.328,2.3,15.7,8.4,21.782s13.455,7.98,21.782,8.4c8.583.487,34.309.487,42.892,0,8.328-.394,15.7-2.3,21.782-8.4,6.078-6.078,7.98-13.455,8.4-21.782.487-8.583.487-34.286,0-42.869ZM92.524,84.861a17.544,17.544,0,0,1-9.882,9.882C75.8,97.458,59.56,96.831,52,96.831s-23.824.6-30.644-2.088a17.544,17.544,0,0,1-9.882-9.882C8.758,78.018,9.384,61.78,9.384,54.217s-.6-23.824,2.088-30.644a17.544,17.544,0,0,1,9.882-9.882C28.2,10.977,44.435,11.6,52,11.6s23.824-.6,30.644,2.088a17.544,17.544,0,0,1,9.882,9.882c2.714,6.843,2.088,23.082,2.088,30.644S95.238,78.041,92.524,84.861Z" transform="translate(0.005 -2.238)" fill="#fff"/>
</svg>
