<svg xmlns="http://www.w3.org/2000/svg" width="850.681" height="374.312" viewBox="0 0 850.681 374.312">
  <g id="Group_2" data-name="Group 2" transform="translate(5.667 4.866)">
    <path id="Path_53" data-name="Path 53" d="M961.354,461.021s.279-36.285,22.556-40.645,12.306-21.61,64.9,4.714S945.025,551.123,945.025,551.123Z" transform="translate(-381.016 -410.794)" fill="#ffcb47"/>
    <g id="Group_1" data-name="Group 1" transform="translate(0 0.149)">
      <path id="Path_1" data-name="Path 1" d="M82.73,23.62l.191.036a33.058,33.058,0,0,0,1.133,4.366c.131.453.179.93.286,1.384s.31.918.418,1.384a6.545,6.545,0,0,0,.2,1.074c.179.429.322.871.465,1.324a52.865,52.865,0,0,1,1.431,5.606,20.469,20.469,0,0,1,.453,3.185c.048.823.239,1.622.239,2.457a4.74,4.74,0,0,0,.167,1.479c.584,1.825.561,3.757,1.133,5.594.262.811.728,1.575,1.038,2.35a18.214,18.214,0,0,0,1.67,2.875,20.143,20.143,0,0,0,1.765,2.231c.334.394.656.895,1.026,1.264.417.429.942.644,1.336,1.109A7.286,7.286,0,0,0,99.692,63.7a7.973,7.973,0,0,1,2.1.525c1.121.525,2.242,1.062,3.4,1.479a18.6,18.6,0,0,1,2.541,1.455c.954.5,1.61,1.4,2.517,1.944,1.121.692,2.326,1.264,3.459,1.932,1.753,1.026,3.173,2.111,5.213,2.517a14.672,14.672,0,0,0,2.8.251,10.713,10.713,0,0,0,2.469-.167c.561-.131,1.085-.382,1.646-.489,2.195-.429,4.354-1.121,6.5-1.753a20.689,20.689,0,0,0,5.38-2.982,9.943,9.943,0,0,1,2.827-.847c1.372-.453,2.863-.847,4.175-1.431a31.3,31.3,0,0,0,7.694-4.8,9.389,9.389,0,0,0,1.956-3.1,16.659,16.659,0,0,0,1.718-4.6,24.254,24.254,0,0,0,.429-3.459,10.128,10.128,0,0,1,.417-1.753,9.925,9.925,0,0,0,.048-1.885,12.4,12.4,0,0,1,.179-2.3,18.42,18.42,0,0,0,.036-2.147c.06-.954.251-1.873.251-2.851-.012-1.026-.012-2.052-.012-3.077,0-1.05,0-2.1.012-3.137s-.215-2.052-.251-3.089a35.411,35.411,0,0,1,.93-8.374" transform="translate(515.49 58.904)" fill="none" stroke="#fff" stroke-linecap="round" stroke-linejoin="round" stroke-miterlimit="10" stroke-width="10"/>
      <path id="Path_2" data-name="Path 2" d="M83.54,91.585c.107-.644-.406-1.479-.537-2.1a24.523,24.523,0,0,1-.239-2.493c-.06-.441-.262-.823-.286-1.288-.024-.441.036-.895.024-1.336a9.676,9.676,0,0,0-.286-1.193,12.475,12.475,0,0,1,.024-1.491c-.048-.573-.274-1.074-.286-1.658-.012-.525.012-1.05.012-1.575,0-1.169-.239-2.266-.274-3.435-.012-.334.036-.68.012-1.026a7.808,7.808,0,0,0-.274-1.038c-.2-1.074.107-2.231-.119-3.316a7.075,7.075,0,0,1-.143-1.813c.024-.608.25-1.121.274-1.718a15.588,15.588,0,0,1,.334-3.65c.334-1.193.465-2.493.716-3.71s.453-2.4.775-3.614c.5-1.837,1.2-3.638,1.789-5.451.179-.537.37-1.1.513-1.646a14.414,14.414,0,0,1,1.837-3.96c1.121-1.968,1.944-4.079,3.089-6.036a29.14,29.14,0,0,1,2.97-4.175,23.151,23.151,0,0,1,3.28-3.209c1.062-.859,1.968-1.932,3.065-2.743.525-.382.93-.954,1.455-1.312a13.071,13.071,0,0,1,1.336-.549c1.288-.7,2.612-1.455,3.865-2.219a27.808,27.808,0,0,1,2.875-1.9c.537-.239,1.026-.525,1.563-.775.692-.31,1.193-.93,1.861-1.288,1.276-.68,2.72-1.217,4.056-1.813a28.3,28.3,0,0,0,2.648-1.264,8.495,8.495,0,0,1,3.065-.835c1.05-.179,2.1-.215,3.137-.394.8-.131,1.563-.382,2.35-.537a16.4,16.4,0,0,1,4.891-.072c1.574.215,3.125.7,4.676,1.074s3.173.465,4.759.68a31.062,31.062,0,0,1,4.449.811c1.873.549,3.745.859,5.618,1.384a28.453,28.453,0,0,1,4.521,1.658c.978.465,2.016.656,3.006,1.1a29.963,29.963,0,0,1,8.708,6.656,45.312,45.312,0,0,1,3.423,4.688c1.252,1.658,2.362,3.423,3.567,5.141a51.5,51.5,0,0,1,3.7,6.322c.608,1.157,1.133,2.338,1.634,3.543.561,1.348,1.336,2.517,1.968,3.829,1.455,3.042,2.648,6.215,3.912,9.316.1.25.119.489.2.74.215.716.751,1.264,1.014,1.968.215.584.3,1.169.572,1.742a20.9,20.9,0,0,1,.99,2.087" transform="translate(498.326 -14.811)" fill="none" stroke="#fff" stroke-linecap="round" stroke-linejoin="round" stroke-miterlimit="10" stroke-width="10"/>
      <path id="Path_3" data-name="Path 3" d="M81.425,60.033c.6.083.823-.31,1.241-.6a7.663,7.663,0,0,0,.99-.716,5.169,5.169,0,0,0,1.98-3.519,26.4,26.4,0,0,1,.048-3.889,25.473,25.473,0,0,0,.2-5.058,19.944,19.944,0,0,1,.656-4.437A16.438,16.438,0,0,1,89.3,36.666a6.8,6.8,0,0,1,2.159-2.087c.823-.5,1.408-1.241,2.207-1.753,2.35-1.515,4.5-3.364,6.775-4.95a15.877,15.877,0,0,1,1.98-1.074c.871-.441,1.646-1.05,2.493-1.527,1.67-.954,3.447-1.61,5.141-2.481a28.531,28.531,0,0,1,4.306-1.563c2.338-.728,4.7-1.419,7.085-2,2.111-.537,4.318-.656,6.477-1.074a23.172,23.172,0,0,1,4.461-.131c2.481,0,4.926-.262,7.419-.262a31.642,31.642,0,0,1,3.364-.012,9.4,9.4,0,0,1,.99.286,11.1,11.1,0,0,0,2.087-.012,38.219,38.219,0,0,1,5.845.262c1.157.167,2.254.465,3.364.728a19.094,19.094,0,0,0,3.6.048,35.26,35.26,0,0,1,6.1,1.074c2.5.537,4.938.406,6.883,2.35a11.976,11.976,0,0,1,1.825,2.409,17.239,17.239,0,0,1,1.384,2.779c.417,1.2.728,2.386,1.05,3.614a7.042,7.042,0,0,0,.847,2.588,5.685,5.685,0,0,0,3.125,2.386,11.171,11.171,0,0,0,5.94-.382" transform="translate(501.228 16.741)" fill="none" stroke="#fff" stroke-linecap="round" stroke-linejoin="round" stroke-miterlimit="10" stroke-width="10"/>
      <path id="Path_4" data-name="Path 4" d="M81.618,21.159l.2.048a9.1,9.1,0,0,0,.334,1.169,6.913,6.913,0,0,0,.441,1.2A19.839,19.839,0,0,1,83.741,26.8a39.262,39.262,0,0,0,1.1,4.02c.573,1.527,1.455,2.9,1.932,4.425a11.842,11.842,0,0,0,.8,1.92c.334.644.489,1.36.859,1.98.716,1.252,1.372,2.493,2.183,3.686a27.5,27.5,0,0,1,1.455,2.755c.37.692.823,1.4,1.264,2.052a39.768,39.768,0,0,1,3.34,5.129c.561,1.193,1.467,2.231,1.968,3.423a9.956,9.956,0,0,0,.775,1.92,11.228,11.228,0,0,1,.918,1.431,54.479,54.479,0,0,0,3.388,5.344c.489.8,1.217,1.419,1.706,2.243a21.487,21.487,0,0,0,1.682,2.3,27.027,27.027,0,0,0,3.96,3.96,22.916,22.916,0,0,0,2.04,1.694,32.759,32.759,0,0,0,4.413,2.016,38.457,38.457,0,0,0,8.135,2.672c1.2.25,2.4.513,3.6.728,1.05.191,2.016.561,3.089.668.5.048.978.227,1.479.262.7.048,1.419-.024,2.123-.012h3.018A34.726,34.726,0,0,0,151.863,78.8c.775-.322,1.169-1.085,1.92-1.527a29.219,29.219,0,0,1,3.018-1.443c1.539-.716,3.221-.859,4.759-1.491,2.171-.871,4.747-1.586,6.549-3.125" transform="translate(503.337 54.566)" fill="none" stroke="#fff" stroke-linecap="round" stroke-linejoin="round" stroke-miterlimit="10" stroke-width="10"/>
      <path id="Path_5" data-name="Path 5" d="M88.971,90.784c.239-1.408,1.157-2.708,1.217-4.139.1-1.873.716-3.817.99-5.7.382-2.553.632-5.141.942-7.706a72.964,72.964,0,0,1,1.9-7.968c.62-2.565,1.372-5.093,1.789-7.682a57.521,57.521,0,0,0,1.181-6.6,6.463,6.463,0,0,1,.31-1.575c.191-.632.2-1.3.358-1.944a21.646,21.646,0,0,0,.537-4.187c.024-.716.239-1.384.262-2.1.024-.68,0-1.36,0-2.04,0-.477-.012-.954-.012-1.419.012-.68.215-1.312.262-1.992.024-.286-.06-.6-.024-.895.048-.489.239-.918.262-1.408a17.692,17.692,0,0,1,.107-1.944c.274-1.431.215-2.934.358-4.39a16.552,16.552,0,0,0,.262-1.765c-.012-.692-.012-1.4-.012-2.1,0-.787-.012-1.586,0-2.386a2.374,2.374,0,0,0-.477-1.5" transform="translate(583.692 34.753)" fill="none" stroke="#fff" stroke-linecap="round" stroke-linejoin="round" stroke-miterlimit="10" stroke-width="10"/>
      <path id="Path_6" data-name="Path 6" d="M83.808,25.279" transform="translate(527.27 99.59)" fill="none" stroke="#fff" stroke-linecap="round" stroke-miterlimit="10" stroke-width="10"/>
      <path id="Path_7" data-name="Path 7" d="M313.648,25.279c.775.549.1,1.324-.024,1.968a8.42,8.42,0,0,0,.012,1.551c.024,1.217-.394,2.266-.382,3.531,0,1.074-.406,1.718-.394,2.743a24.076,24.076,0,0,1-.394,3.125,20.683,20.683,0,0,1-1.085,3.948c-.441,1.312-.585,2.636-.954,3.96-.406,1.443-1.074,2.827-1.575,4.223a7.414,7.414,0,0,1-2.839,4.1c-1.36.895-2.242,1.753-3.936,1.765-1.574.012-2.97.394-4.58.394-1.563,0-3.137.012-4.712,0-1.694-.012-3.268.394-4.986.394-1.419,0-2.863.083-4.294.012a8.3,8.3,0,0,1-2.1-.62,8.9,8.9,0,0,0-2.517-.179c-1.515.012-2.91.37-4.39.406-.68.012-1.36,0-2.04,0a7.894,7.894,0,0,1-3.471-1.193,23.882,23.882,0,0,0-4.664-2.052,16.894,16.894,0,0,0-4.783-.286,94.113,94.113,0,0,0-13.228.775c-2.1.3-4.294.6-6.37,1.074s-4.139.465-6.238.93c-2.911.656-5.952.513-8.839,1.276a40.615,40.615,0,0,1-7.1,1.408c-1.074.083-2.028.406-3.125.406a20.779,20.779,0,0,0-3.328.394c-2.851.417-5.7.644-8.576.978-1.455.167-2.922.417-4.39.549a29.453,29.453,0,0,0-3.244.227,44.419,44.419,0,0,1-6.489.99c-2.409.1-4.843-.012-7.252-.012a25.278,25.278,0,0,1-2.851.024c-1.109-.131-2.123-.644-3.232-.8a38.482,38.482,0,0,1-4.485-.966c-1.73-.489-3.447-1.288-5.189-1.694-4.032-.93-8.171-2.1-12.31-2.72-5.988-.883-11.916-2.409-17.928-3.161-4.5-.561-9.232-1.479-13.765-1.217-4.127.239-8.171,1.121-12.262,1.491-5.189.465-10.425,1.563-15.65,1.622-3.495.036-6.99.656-10.509.787-2.779.107-5.57-.1-8.362.06-4,.227-8.1,1.062-12.047.31" transform="translate(297.43 99.59)" fill="none" stroke="#fff" stroke-linecap="round" stroke-linejoin="round" stroke-miterlimit="10" stroke-width="10"/>
      <path id="Path_8" data-name="Path 8" d="M158.692,32.665l-.024.131a2.388,2.388,0,0,1-1.36-.119,7.1,7.1,0,0,0-2.469-.167c-.346,0-.692.012-1.038.012-.394-.012-.752-.155-1.145-.167-1.109-.024-2.231,0-3.34,0-2.028,0-4.079-.394-6.119-.119-1.467.2-2.97.2-4.437.394a11.062,11.062,0,0,1-1.777.036,24.337,24.337,0,0,0-2.457.191,18.679,18.679,0,0,1-2.314.119c-.644-.012-1.252.167-1.9.155-1.372-.012-2.767,0-4.151,0a29.77,29.77,0,0,0-4.127.036,22.245,22.245,0,0,1-5.117.048c-1-.107-2.016-.167-3.018-.25-.751-.072-1.479-.251-2.231-.382-1.241-.215-2.469-.394-3.71-.656-2.815-.584-5.678-1.05-8.517-1.539-.5-.084-.99.012-1.491-.024-.322-.024-.608-.143-.918-.167-.274-.012-.5.012-.787-.024-1.622-.227-3.209-.656-4.819-.942a12.171,12.171,0,0,1-1.622-.31c-.394-.119-.823-.143-1.229-.227-1.169-.215-2.314-.453-3.471-.692-.859-.167-1.682-.417-2.553-.537a17.522,17.522,0,0,0-2.374-.036,2.08,2.08,0,0,0-1.085.143,3.564,3.564,0,0,0-1.05,1.062,4.242,4.242,0,0,0-.728.99,3.931,3.931,0,0,0-.179,1.229c-.036.37-.119.787-.465.907a3.877,3.877,0,0,1-1.05-.012h-.99c-.167,0-.322-.012-.477-.012a1.384,1.384,0,0,0-.668.215,3.907,3.907,0,0,0-1.9,1.718c-.346.823-.358,1.837-1.229,2.362-.68.417-1.92.191-2.684.191-.907,0-2.242-.239-3.054.215-.775.441-.918,1.622-1.1,2.374a5.384,5.384,0,0,0-.119,1.4,8.157,8.157,0,0,1,.012,1.527,1.611,1.611,0,0,1-1.121,1,10.186,10.186,0,0,1-1.539.429,9.128,9.128,0,0,0-1.873.227,7.726,7.726,0,0,0-1.348.632,5.237,5.237,0,0,0-1.515,1.6,4.672,4.672,0,0,0-.489,2.326,13.609,13.609,0,0,0,.31,2.4c.083.573.3,1.157.429,1.718a8.839,8.839,0,0,1,.048,3.495,3.7,3.7,0,0,1-.036.513c-.06.25-.286.417-.406.644-.143.3-.179.644-.334.954a5.154,5.154,0,0,0-.358.668c-.2.537-.5,1.05-.692,1.586a12.579,12.579,0,0,0-.465,1.9,3.768,3.768,0,0,0,.119,1.5c.072.358.131.907.465,1.109" transform="translate(201.501 122.823)" fill="none" stroke="#fff" stroke-linecap="round" stroke-linejoin="round" stroke-miterlimit="10" stroke-width="10"/>
      <path id="Path_9" data-name="Path 9" d="M54.129,38.319c-.024.155.036.227.167.191.119-.334-.012-.692.084-1.038a7.622,7.622,0,0,1,.6-1.109,3.547,3.547,0,0,1,2.242-2.052,10.7,10.7,0,0,1,2.624-.227A2.465,2.465,0,0,1,61.5,34.5a7.346,7.346,0,0,1,1.765,1.276c.3.406.549.847.811,1.264a10.77,10.77,0,0,1,1.169,1.575,9.178,9.178,0,0,1,.334,3.519,7.558,7.558,0,0,1-.644,2.97,12.745,12.745,0,0,1-.632,1.575c-.227.406-.561.763-.835,1.169-.3.441-.751.74-1.074,1.157a6.359,6.359,0,0,0-.644,1.384,2.189,2.189,0,0,0-.167,1.479,5.654,5.654,0,0,0,1.038,1.61c.382.382.895.656,1.264,1.05.417.441.5.62,1.038.8a4.17,4.17,0,0,0,1.718.179,3.976,3.976,0,0,0,1.837-1.241c1.074-.99,2-2.195,3.137-3.113,1.324-1.05,2.35-2.469,3.745-3.507C77.186,46.3,78.88,44.76,80.7,43.412a21.049,21.049,0,0,1,2.493-1.6A24.988,24.988,0,0,0,85.5,40.6a14.971,14.971,0,0,1,2.386-1.479,15.843,15.843,0,0,0,1.956-1.109A14.614,14.614,0,0,0,93.134,34.5a8.5,8.5,0,0,1,2.827-2.314,11.887,11.887,0,0,1,4.378-1.551,51.808,51.808,0,0,1,5.714-.8" transform="translate(202.875 149.411)" fill="none" stroke="#fff" stroke-linecap="round" stroke-linejoin="round" stroke-miterlimit="10" stroke-width="10"/>
      <path id="Path_10" data-name="Path 10" d="M58.472,29.846c4.64,0,7.765,3.423,12,4.867,2.421.823,4.843,1.586,7.264,2.386.763.251,1.586.262,2.362.489.608.191,1.133.549,1.73.751,1.419.489,2.922.978,4.366,1.443,1.467.477,2.958.907,4.449,1.336s3.185.537,4.628,1.121c3.376,1.336,6.942,2.3,10.318,3.638a26.115,26.115,0,0,0,2.887.7c.835.239,1.586.656,2.4.954,1.765.644,3.626,1.038,5.427,1.527,1.992.549,3.9,1.372,5.893,1.885,1.944.5,3.889.93,5.821,1.527,4.473,1.384,9.065,2.195,13.55,3.423a48.936,48.936,0,0,0,11.892,1.634c1.6.036,3.1.429,4.747.429h4.246c1.276,0,2.553.036,3.829.012,3.209-.06,6.358-1.264,9.566-1.575,1.443-.131,2.732-.513,4.151-.5a45.257,45.257,0,0,0,6.835-.537c1.634-.227,3.137-.191,4.747-.274.99-.048,1.932-.406,2.922-.465a14.916,14.916,0,0,1,3.089.406,31.152,31.152,0,0,0,4.223.036c2.66,0,5.368-.167,8.016.036,3.376.274,6.739.6,10.115.811a74.132,74.132,0,0,1,13.789,2.29c1.885.489,3.507,1.193,5.439,1.5,2.433.406,4.914.918,7.288,1.563,2.994.823,5.821,2.338,8.767,3.316a88.2,88.2,0,0,1,12.238,4.545c3.388,1.706,7.622,3.555,10.127,6.5,1.658,1.944,3.71,3.435,5.535,5.225a49.976,49.976,0,0,1,8.338,10.413c2.088,3.614,4.449,7.443,5.69,11.475a41.151,41.151,0,0,1,1.109,5.392,26.809,26.809,0,0,0,.811,4.807" transform="translate(250.395 149.499)" fill="none" stroke="#fff" stroke-linecap="round" stroke-linejoin="round" stroke-miterlimit="10" stroke-width="10"/>
      <path id="Path_11" data-name="Path 11" d="M58.785,51.5a8.641,8.641,0,0,0-.37-1.885,12.948,12.948,0,0,1-.048-2.8V43.933a13.6,13.6,0,0,1,.107-2.958,10.241,10.241,0,0,0,.1-1.348c.06-.6.358-1.145.418-1.741a13.549,13.549,0,0,1,.966-3.1,4.76,4.76,0,0,0,.239-1.05,6.247,6.247,0,0,1,1.121-2.362c.418-.68,1-1.3,1.348-2.016a4.4,4.4,0,0,1,1.014-1.5" transform="translate(248.638 127.73)" fill="none" stroke="#fff" stroke-linecap="round" stroke-linejoin="round" stroke-miterlimit="10" stroke-width="10"/>
      <path id="Path_12" data-name="Path 12" d="M86.442,35.544V48.5c0,1.615-.154,2.938-.236,4.469-.153,2.915.176,5.93-.109,8.785-.363,3.665-.872,7.277-1.269,10.942a19.482,19.482,0,0,1-.752,4.27c-.15.39-.359.62-.494,1.056a23.241,23.241,0,0,0-.487,2.808,27.558,27.558,0,0,0-.569,4.507c-.007,1.1-.195,2.089-.251,3.176-.052,1.071.015,2.227.015,3.313-.007,3.183.674,7.055.1,10.177-.378,2.074-1.1,3.872-1.49,5.953-.2,1.064-.479,2.035-.708,3.068-.258,1.209-.3,2.517-.494,3.765-.225,1.469-.547,2.762-.711,4.285-.154,1.439-.386,2.747-.633,4.124-.431,2.38-.524,4.721-.737,7.193-.206,2.38-.419,4.805-.756,7.109-.348,2.38-.973,4.331-1.5,6.55" transform="translate(459.222 211.767)" fill="none" stroke="#fff" stroke-linecap="round" stroke-linejoin="round" stroke-miterlimit="10" stroke-width="10"/>
      <path id="Path_14" data-name="Path 14" d="M89.457,26.276l-.262-.06a1,1,0,0,0-.417-.787c.573.453.489.907.668,1.515.131.441.489.93.6,1.36.3,1.276.716,2.541,1.121,3.829a29.412,29.412,0,0,0,1.467,3.912,42.324,42.324,0,0,0,3.006,6.131,20.728,20.728,0,0,0,2.207,2.588c.787.763,1.348,1.646,2.1,2.421a18.737,18.737,0,0,0,5.547,4.151c3.793,1.777,7.193,4.545,10.938,6.537a18.4,18.4,0,0,0,2.743.871c.823.274,1.575.763,2.421.978,1.9.489,3.805,1.527,5.749,1.694,1.288.107,2.457.334,3.757.334h2.7a28.883,28.883,0,0,0,6.346-.406c1.086-.239,2.171-.334,3.268-.573,1.36-.286,2.565-.918,3.889-1.229,3.65-.859,7.217-2.469,11-2.7,1.5-.083,3.054.024,4.557.024a19.634,19.634,0,0,1,4.736.227c2.409.608,4.735.907,6.811,2.433a66,66,0,0,1,6.489,4.8c2.7,2.541,5.332,5.117,8.147,7.515a18.131,18.131,0,0,0,7.8,3.65c1.217.227,2.314.775,3.531.907.561.06.906.239,1.431.334a10.074,10.074,0,0,0,1.9-.012c2.731,0,5.4-.167,8.1-.31,3.805-.2,7.491-1.455,11.32-1.336a35.358,35.358,0,0,1,5.093.918,23.332,23.332,0,0,1,3.9.978c3.2,1.121,6.107,2.887,9.185,4.318a25.827,25.827,0,0,1,6.751,4.867,10.826,10.826,0,0,1,1.873,2.35,15.8,15.8,0,0,1,2.052,3.829c.716,2.6.441,5.248,1.348,7.825a29.03,29.03,0,0,0,2.386,5.129,23.435,23.435,0,0,1,2.04,5.153c.167.525.429,1.145.573,1.67a17.022,17.022,0,0,1,.06,3.817v5c0,2.4-.06,4.855-1.575,6.883a8.46,8.46,0,0,1-2.958,1.944c-1.2.62-2.374,1.312-3.566,1.956-1.3.692-2.445,1.551-3.674,2.3-.465.286-1.05.382-1.539.644a38.672,38.672,0,0,0-3.292,2.29c-5.177,3.543-10.938,5.558-16.974,7.145a70.349,70.349,0,0,1-10.163,2.052,23.376,23.376,0,0,1-3.292.227c-1.61-.036-3.2.322-4.819.358a35.873,35.873,0,0,1-6.584-.608c-1.956-.334-4.079-.012-6.048-.06-2.314-.048-4.616-.477-6.93-.668a52.039,52.039,0,0,1-9.22-1.312,37.823,37.823,0,0,0-11.105-1.634,19.193,19.193,0,0,0-4.533,1.241c-1.36.417-2.529,1.109-3.841,1.634-1.193.489-2.481.608-3.674,1.05a15.937,15.937,0,0,1-3.912,1.252,28.494,28.494,0,0,1-6.3-.274c-2.052-.2-4.1-.751-6.143-.406-1.026.179-2.445.167-2.887,1.384" transform="translate(581.572 101.229)" fill="none" stroke="#fff" stroke-linecap="round" stroke-linejoin="round" stroke-miterlimit="10" stroke-width="10"/>
      <path id="Path_15" data-name="Path 15" d="M109.033,35.76h.071a4.115,4.115,0,0,0-.954,1.372c-.155.3-.215.644-.37.942-.262.477-.477.954-.692,1.443a10.413,10.413,0,0,0-.5,1.324c-.131.465-.155.93-.262,1.4-.143.6-.382,1.181-.5,1.789s-.239,1.217-.31,1.837c-.143,1.169-.537,2.314-.763,3.483a24.819,24.819,0,0,1-.632,2.755,20,20,0,0,0-.632,3.244,12.976,12.976,0,0,0-.048,1.8,30.657,30.657,0,0,0-.048,4.8,20.739,20.739,0,0,0,.441,2.576,9.847,9.847,0,0,1,.37,1.741c.072.62.191,1.229.3,1.849.131.68.382,1.324.489,2.016a27.728,27.728,0,0,0,1.085,4.163,5.923,5.923,0,0,1,.167.918l.239,1.145a6.625,6.625,0,0,1,.143,1.455,8.941,8.941,0,0,1-.143,1.777,6.9,6.9,0,0,1-.406,1.181c-.191.5-.525.656-.978.919-.382.227-.549.406-.99.394a2.217,2.217,0,0,1-1.336-.441,1.266,1.266,0,0,0-.382-.334,5.1,5.1,0,0,1-.692-.31,4.392,4.392,0,0,1-1.085-.895c-.191-.239-.394-.477-.584-.716a14.825,14.825,0,0,1-.895-1.515c-.191-.31-.441-.608-.608-.942a9.457,9.457,0,0,1-.573-1.563c-.441-1.467-.775-2.97-1.1-4.461a16.465,16.465,0,0,0-.465-2.016c-.167-.465-.382-.895-.525-1.36-.334-1.169-.489-2.386-.763-3.567-.251-1.062-.68-2.064-.99-3.1-.251-.811-.418-1.658-.716-2.445a5.214,5.214,0,0,1-.286-1.2,8.715,8.715,0,0,0-.37-1.431c-.37-1.36-.632-2.755-.99-4.115-.1-.334-.227-.656-.322-.99-.119-.406-.036-.859-.119-1.276a3.673,3.673,0,0,1-.036-1.085,1.931,1.931,0,0,0-.119-1.241" transform="translate(607.537 214.128)" fill="none" stroke="#fff" stroke-linecap="round" stroke-linejoin="round" stroke-miterlimit="10" stroke-width="10"/>
      <path id="Path_16" data-name="Path 16" d="M101.97,37.14a2.979,2.979,0,0,1,.107.441c.012.143,0,.286,0,.441v.954c0,.251-.012.513,0,.775a6.485,6.485,0,0,0,.107.668c.06.6.179,1.193.227,1.789.012.358.119.68.107,1.05a4.513,4.513,0,0,0,.06.895c.048.346.048.692.1,1.038.072.406.191.8.262,1.193.1.608.084,1.229.191,1.837.048.3.024.6.071.907.084.513.024,1.026.107,1.539a6.441,6.441,0,0,1,.084.954c.012.262.107.513.119.775a10.575,10.575,0,0,0,.274,1.813c.107.537.179,1.121.238,1.67a25.388,25.388,0,0,0,.477,2.66c.31,1.431.811,2.791,1.085,4.235a30.416,30.416,0,0,0,1.348,4.091,10.426,10.426,0,0,0,.417,1c.167.382.262.8.429,1.181.143.346.37.632.5.966.155.394.3.763.489,1.145a13.694,13.694,0,0,0,.775,1.753,11.4,11.4,0,0,1,.644,1.121,6.441,6.441,0,0,1,.895,2.91c.024.584.024,1.193,0,1.777a4.083,4.083,0,0,1-.358,1.646,3.371,3.371,0,0,1-.859,1.062,5.147,5.147,0,0,1-.978.525,3.4,3.4,0,0,1-1.825-.072,7.082,7.082,0,0,1-1.121-.179,4.46,4.46,0,0,1-1.062-.608,7.067,7.067,0,0,1-1.753-1.92c-.262-.417-.525-.835-.823-1.229a16.878,16.878,0,0,1-1.05-1.8c-.239-.429-.561-.823-.8-1.264s-.465-.918-.716-1.372a28.881,28.881,0,0,1-1.288-3.137c-.453-1.181-1-2.338-1.443-3.519-.155-.429-.322-.859-.465-1.288-.179-.489-.441-.93-.632-1.407-.31-.787-.608-1.586-.919-2.386-.262-.656-.584-1.288-.835-1.932-.227-.573-.441-1.133-.692-1.694-.155-.334-.227-.692-.382-1.014-.107-.227-.227-.453-.334-.68a12.325,12.325,0,0,1-.572-1.431,9.982,9.982,0,0,1-.525-1.407c-.179-.763-.238-1.539-.346-2.3-.215-1.479-.417-2.958-.584-4.437-.084-.716-.131-1.408-.251-2.111a28.552,28.552,0,0,1-.239-3.34" transform="translate(597.483 229.208)" fill="none" stroke="#fff" stroke-linecap="round" stroke-linejoin="round" stroke-miterlimit="10" stroke-width="10"/>
      <path id="Path_17" data-name="Path 17" d="M101.881,42.529c.251.907.382,1.8.573,2.72.072.358.191.728.274,1.085a7.75,7.75,0,0,1,.131,1.825c0,.751.072,1.479.143,2.231.036.406.084.787.084,1.193a5.7,5.7,0,0,0,.107.907c.143,1.038.262,2.087.465,3.125a29.1,29.1,0,0,0,1.67,5.94,33.483,33.483,0,0,0,1.217,3.209c.227.406.453.823.656,1.252.251.537.394,1.109.656,1.646.2.429.3.847.489,1.276a9.328,9.328,0,0,1,.608,1.67c.107.489.394.907.537,1.384.179.561.3,1.157.477,1.73a9.183,9.183,0,0,1,.37,1.36,9.964,9.964,0,0,1,.1,1.575,2.864,2.864,0,0,1-.322,1.431,3.8,3.8,0,0,1-1.014,1.2,2.887,2.887,0,0,1-1.217.406c-.513.107-.978.262-1.5.334a5.106,5.106,0,0,1-2.207.036,8.28,8.28,0,0,1-.907-.489c-.382-.179-.7-.453-1.085-.62a4.359,4.359,0,0,1-1.491-1.014,6.23,6.23,0,0,1-.406-.573c-.155-.239-.358-.453-.489-.7a10.951,10.951,0,0,1-.549-2.04c-.262-.883-.7-1.682-1.038-2.529a20.214,20.214,0,0,0-.883-2.016c-.119-.251-.251-.477-.37-.728-.155-.346-.215-.7-.37-1.05-.2-.441-.358-.883-.549-1.336-.239-.573-.537-1.109-.751-1.694-.239-.656-.441-1.324-.692-1.968-.239-.6-.453-1.2-.644-1.8-.227-.728-.382-1.479-.6-2.207-.227-.811-.549-1.6-.775-2.409-.334-1.121-.871-2.135-1.288-3.233a21.851,21.851,0,0,1-.847-5.117c-.1-.7-.262-1.384-.418-2.064a14.671,14.671,0,0,1-.25-2.887c-.024-.644-.036-1.276,0-1.92a11.609,11.609,0,0,0,.083-1.575c-.024-.239-.048-.477-.048-.7,0-.585.06-.668-.441-1.038" transform="translate(588.03 242.475)" fill="none" stroke="#fff" stroke-linecap="round" stroke-linejoin="round" stroke-miterlimit="10" stroke-width="10"/>
      <path id="Path_18" data-name="Path 18" d="M102.288,63.238a9.866,9.866,0,0,0,.239,1.968c.2.99.286,1.98.465,2.97.1.477.167.966.251,1.443.107.561.072,1.133.191,1.682a3.6,3.6,0,0,1,.048.716c.012.215.1.417.119.632.048.453.155.883.215,1.324.107.871.382,1.73.453,2.588.036.477.036.966.107,1.431.1.608.1,1.217.191,1.837a10.5,10.5,0,0,1,.024,1.622c0,.787-.167,1.527-.215,2.3a5.867,5.867,0,0,1-.525,1.849,2.333,2.333,0,0,1-.251.441c-.167.215-.334.215-.549.37a4.92,4.92,0,0,1-1.1.74,1.929,1.929,0,0,1-1.2.2c-.775-.179-1.586-.346-2.362-.537-.465-.107-.775-.6-1.05-.954a10.09,10.09,0,0,1-1.038-1.4,13.68,13.68,0,0,0-.763-1.264,7.847,7.847,0,0,1-.883-2.231c-.525-1.956-.7-3.96-1.169-5.916a6.855,6.855,0,0,0-.31-.823,7.067,7.067,0,0,1-.286-1.014,12.035,12.035,0,0,0-.751-1.873c-.239-.525-.429-1.074-.716-1.575a14.432,14.432,0,0,1-.883-2.529c-.215-.68-.417-1.348-.656-2.016-.227-.6-.262-1.252-.429-1.873a20.072,20.072,0,0,1-.537-4.139c-.1-1.419-.143-2.875-.346-4.282-.394-2.648.107-5.415.465-8.04.215-1.527.5-3.03.74-4.557.1-.656.262-1.276.334-1.932a23.934,23.934,0,0,1,.763-2.743" transform="translate(577.746 234.935)" fill="none" stroke="#fff" stroke-linecap="round" stroke-linejoin="round" stroke-miterlimit="10" stroke-width="10"/>
      <path id="Path_19" data-name="Path 19" d="M88.66,81.009a10.035,10.035,0,0,1,.25-2.469c.239-.918.68-1.765.99-2.66a12.606,12.606,0,0,1,.513-1.157c.549-1.169,1.181-2.314,1.67-3.519.227-.561.561-1.05.823-1.6a6.09,6.09,0,0,1,.37-.8,9.57,9.57,0,0,0,.692-1.157c.274-.549.358-1.169.644-1.729a22.017,22.017,0,0,0,1-2.159c.191-.513.441-1,.644-1.515.215-.549.406-1.074.6-1.634a15.893,15.893,0,0,0,.584-1.586,3.51,3.51,0,0,1,.3-1.062,10.122,10.122,0,0,0,.346-1.014q.734-1.628,1.431-3.292c.334-.811.572-1.646.93-2.445a13.216,13.216,0,0,0,.537-1.5c.215-.7.394-1.419.668-2.111.465-1.193.954-2.386,1.515-3.543a34.691,34.691,0,0,1,2.624-4.509c.37-.537.8-1.026,1.157-1.563.2-.3.37-.62.573-.907.227-.3.465-.584.656-.895.227-.346.394-.728.632-1.074a4.656,4.656,0,0,0,.847-1.4" transform="translate(580.293 191.769)" fill="none" stroke="#fff" stroke-linecap="round" stroke-linejoin="round" stroke-miterlimit="10" stroke-width="10"/>
      <path id="Path_20" data-name="Path 20" d="M90.459,65.737c-.06-.227.227-.692.322-.883a4.132,4.132,0,0,1,.859-.966,8.965,8.965,0,0,1,2.5-2c1.085-.5,2.123-1.014,3.185-1.515.775-.346,1.455-.942,2.207-1.36.262-.143.5-.322.763-.465.394-.227.823-.334,1.241-.537.716-.346,1.455-.608,2.147-1,.823-.465,1.646-.954,2.5-1.336a22.619,22.619,0,0,0,2.028-1.312c.966-.584,1.908-1.241,2.9-1.777.692-.358,1.336-.847,2.052-1.133a6,6,0,0,0,1.24-.537c.31-.215.632-.441.954-.632.382-.239.787-.429,1.169-.656.3-.191.525-.465.823-.644.489-.3,1.014-.465,1.5-.775a8.138,8.138,0,0,0,.823-.608,7.462,7.462,0,0,1,1.157-.668c.477-.3.871-.728,1.36-1.014.644-.382,1.348-.632,1.992-1.014a18.816,18.816,0,0,1,2.243-.99c2.111-.907,4.282-1.67,6.346-2.66a38.474,38.474,0,0,1,5.869-1.718,41.117,41.117,0,0,1,4.64-1.133c1.479-.286,3.018-.394,4.485-.763a7.045,7.045,0,0,1,1.336-.119c.537-.024,1.038-.167,1.574-.179s1.062.012,1.587.012a10.114,10.114,0,0,1,2.541.2c.394.1.787.2,1.193.262.68.107,1.372-.012,2.052.048.7.072,1.384.239,2.076.334a3.556,3.556,0,0,0,1.515-.31c.68-.2,1.372-.394,2.052-.573a5.339,5.339,0,0,0,1.348-.632c1.169-.8,2.123-1.9,3.268-2.72.835-.608,1.527-1.419,2.386-2.016a5.491,5.491,0,0,1,.692-.477c.632-.334,1.4-.358,2.052-.68" transform="translate(599.869 159.793)" fill="none" stroke="#fff" stroke-linecap="round" stroke-linejoin="round" stroke-miterlimit="10" stroke-width="10"/>
      <path id="Path_21" data-name="Path 21" d="M90.476,35.67a2.01,2.01,0,0,0,1.229-.3,6.794,6.794,0,0,1,1.8-.871,8.223,8.223,0,0,1,1.61-.334A12.515,12.515,0,0,0,97.1,33.9a20.6,20.6,0,0,1,3.066-.334,11.528,11.528,0,0,1,3.006.191,7.031,7.031,0,0,1,1.193.406,11.709,11.709,0,0,0,1.086.573,17.154,17.154,0,0,1,2.242,1,9.838,9.838,0,0,1,3.722,4.079c.406.668.859,1.264,1.2,1.98.37.751.823,1.455,1.169,2.207a32.151,32.151,0,0,1,1.527,3.7,28.739,28.739,0,0,0,1.2,3.447c.429.93.561,1.98.895,2.946.167.477.215.99.334,1.467.071.31.2.6.262.895.1.406.06,1.121.334,1.455l.119-.107" transform="translate(600.139 190.123)" fill="none" stroke="#fff" stroke-linecap="round" stroke-linejoin="round" stroke-miterlimit="10" stroke-width="10"/>
      <path id="Path_25" data-name="Path 25" d="M152.381,35.691c-1.551,1.6-3.182,2.986-4.746,4.552a10.164,10.164,0,0,1-1.052.951c-.425.328-.876.689-1.288,1.024-.984.8-1.793,1.714-2.9,2.47a9.733,9.733,0,0,0-1.6,1.694c-.472.482-1.18.93-1.7,1.386-1.106.971-2.359,1.747-3.4,2.8-.607.616-1.3,1.111-1.928,1.68-.479.442-.789,1-1.247,1.473a14.285,14.285,0,0,0-2.218,2.463c-.553.937-1.227,1.674-1.827,2.571-.782,1.178-1.881,2.082-2.7,3.267-.964,1.412-2.218,2.631-3.114,4.077-1.941,3.12-3.216,6.587-5.251,9.646-.647.971-1.018,1.988-1.584,2.992s-1.288,1.868-1.928,2.8c-1.052,1.533-1.692,3.213-2.771,4.726a14.688,14.688,0,0,0-1.476,3.16c-.519,1.305-1.18,2.551-1.658,3.863-1.51,4.15-3.377,8.187-5.056,12.284-.748,1.814-1.139,3.715-1.834,5.543-.344.9-.634,1.787-.917,2.7-.465,1.486-1.126,2.865-1.645,4.338-.667,1.881-1.429,3.715-2.252,5.543-.735,1.647-1.739,3.2-2.346,4.9-1.153,3.193-1.625,6.641-2.541,9.908-.452,1.627-.755,3.327-1.065,5-.1.542-.2,1.091-.276,1.64-.189,1.312.067,2.879-1.058,3.762" transform="translate(632.92 213.374)" fill="none" stroke="#fff" stroke-linecap="round" stroke-linejoin="round" stroke-miterlimit="10" stroke-width="10"/>
      <path id="Path_30" data-name="Path 30" d="M57.22,32.746l-.012.191a27.224,27.224,0,0,1,2.457-2.076c.93-.8,3.233-2.469,3.233-3.793" transform="translate(236.582 119.14)" fill="none" stroke="#fff" stroke-linecap="round" stroke-linejoin="round" stroke-miterlimit="10" stroke-width="10"/>
      <path id="Path_31" data-name="Path 31" d="M58.055,29.909a9.987,9.987,0,0,1,2.529-2.123,8.4,8.4,0,0,1,2.708-.74,11.11,11.11,0,0,1,1.551-.286,8.788,8.788,0,0,0,1.252-.024,5.093,5.093,0,0,1,3.316.072c1.181.561,1.742,2.195,1.9,3.364a15.128,15.128,0,0,1,.322,3.221,6.116,6.116,0,0,1-1.419,3.316c-.7.68-2.6,1.431-2.374,2.66" transform="translate(245.838 112.828)" fill="none" stroke="#fff" stroke-linecap="round" stroke-linejoin="round" stroke-miterlimit="10" stroke-width="10"/>
      <path id="Path_32" data-name="Path 32" d="M58.5,28.334A2.39,2.39,0,0,0,60.39,27.7" transform="translate(250.756 126.069)" fill="none" stroke="#fff" stroke-linecap="round" stroke-miterlimit="10" stroke-width="10"/>
      <path id="Path_33" data-name="Path 33" d="M87.092,30.591c-.048.25-.608.465-.823.584a4.73,4.73,0,0,0-.537.3c-.179.131-.3.286-.477.417-.418.334-.871.668-1.288,1.014-.191.155-.334.358-.537.5-.274.179-.573.31-.835.5A22.334,22.334,0,0,0,79.923,36.1c-.394.406-.811.811-1.217,1.217a14.679,14.679,0,0,1-1.658,1.563,10.673,10.673,0,0,0-1.575,1.539,13.436,13.436,0,0,1-2.231,2.123,9.075,9.075,0,0,0-1.181.966c-.334.334-.561.74-.918,1.062-.453.394-.871.8-1.3,1.229a10.9,10.9,0,0,1-1.515,1.133c-.811.608-1.646,1.2-2.421,1.849-.3.25-.561.6-.835.871-.346.346-.728.656-1.062,1.014s-.763.573-1.109.907a15.7,15.7,0,0,0-1.2,1.312c-.656.8-1.539,1.36-2.231,2.123-.7.787-1.491,1.443-2.111,2.29a14.015,14.015,0,0,1-1.3,1.36,12.185,12.185,0,0,1-.93,1.145,12.451,12.451,0,0,0-1.312,1.431c-.346.429-.8.751-1.157,1.193-.453.537-1.026.919-1.527,1.408l.2-.2" transform="translate(170.15 157.64)" fill="none" stroke="#fff" stroke-linecap="round" stroke-linejoin="round" stroke-miterlimit="10" stroke-width="10"/>
      <path id="Path_34" data-name="Path 34" d="M87.077,31.445a3.713,3.713,0,0,1-.477.262,2.84,2.84,0,0,0-.477.453,6.232,6.232,0,0,1-1.527.93,17.989,17.989,0,0,0-2.41,1.419,6.315,6.315,0,0,0-1.062.966c-.358.406-.787.716-1.157,1.121a8.85,8.85,0,0,1-1.753,1.36,7.467,7.467,0,0,0-1.539,1.336c-.406.441-.859.811-1.3,1.241-.465.465-1.05.8-1.539,1.241-1.169,1.073-2.076,2.386-3.2,3.495-.227.227-.429.477-.644.7a9.92,9.92,0,0,0-.584.859,14.056,14.056,0,0,1-2.135,2.159c-.37.334-.811.584-1.169.918a12.975,12.975,0,0,0-.942,1.038c-.787.942-1.67,1.825-2.541,2.7-.441.429-.835.918-1.252,1.372-.239.25-.477.465-.716.7a6.916,6.916,0,0,1-.7.751,9.662,9.662,0,0,0-.775.608c-.537.465-1.109.871-1.61,1.384-.7.716-1.431,1.4-2.183,2.052-.728.608-1.372,1.312-2.064,1.956A7.629,7.629,0,0,0,51.794,64.1a1.631,1.631,0,0,1,.107-.68" transform="translate(177.393 166.973)" fill="none" stroke="#fff" stroke-linecap="round" stroke-linejoin="round" stroke-miterlimit="10" stroke-width="10"/>
      <path id="Path_35" data-name="Path 35" d="M55.3,33.768c-.215.06-.382.417-.525.6a2.772,2.772,0,0,1-.6.465.924.924,0,0,0-.286.382,3.1,3.1,0,0,1-.584.668,5.9,5.9,0,0,0-.787,1.145c-.25.406-.62.728-.859,1.133-.215.346-.417.7-.62,1.062a3.35,3.35,0,0,0-.608,2.529,4.659,4.659,0,0,0,.37,1.014,5.038,5.038,0,0,0,1.1,1.407,9.206,9.206,0,0,0,1.217.907,7.014,7.014,0,0,0,1.121.74c.394.179.74.453,1.145.632a3.343,3.343,0,0,0,1.288.119A3.853,3.853,0,0,0,59.08,45.4,18.78,18.78,0,0,1,60.6,44.181a13.432,13.432,0,0,0,1.133-1.2c.394-.441.847-.811,1.241-1.241.167-.179.274-.406.441-.573s.465-.215.5-.477l-.083-.048" transform="translate(161.674 192.359)" fill="none" stroke="#fff" stroke-linecap="round" stroke-linejoin="round" stroke-miterlimit="10" stroke-width="10"/>
      <path id="Path_36" data-name="Path 36" d="M55.148,33.74l.131.06a2.561,2.561,0,0,0-.608-.274,1.676,1.676,0,0,0-.346-.012c-.131-.024-.227-.107-.358-.131-.608-.131-1.109.322-1.6.6-.25.143-.429.286-.656.441a1.658,1.658,0,0,0-.561.74c-.119.239-.811,1.718-.167,1.765l.024-.107" transform="translate(165.618 187.89)" fill="none" stroke="#fff" stroke-linecap="round" stroke-linejoin="round" stroke-miterlimit="10" stroke-width="10"/>
      <path id="Path_37" data-name="Path 37" d="M51.513,36.34c.036.179.143.2.3.239.084.024.179,0,.262.024.048,0,.084.084.143.1a1.684,1.684,0,0,0,1.133-.3,2.548,2.548,0,0,0,1.014-.966c.084-.167.537-1.181.227-1.229" transform="translate(174.346 197.134)" fill="none" stroke="#fff" stroke-linecap="round" stroke-linejoin="round" stroke-miterlimit="10" stroke-width="10"/>
      <path id="Path_38" data-name="Path 38" d="M50.758,33.688c.179-.048.215.084.358.119a2.3,2.3,0,0,1,.537.119c.155.072.322.107.477.179.179.1.346.262.525.382.37.239.775.3,1.133.561a5.025,5.025,0,0,0,.763.465,3.161,3.161,0,0,1,.835.549,3.3,3.3,0,0,1,.6.561c.119.167.227.334.346.5a2.91,2.91,0,0,1,.239.3,1.458,1.458,0,0,0,.167.334c.167.2.417.3.608.489.227.215.346.513.561.751a4.545,4.545,0,0,1,.441.513,6.623,6.623,0,0,0,.537.751c.191.25.262.573.525.763" transform="translate(166.095 191.377)" fill="none" stroke="#fff" stroke-linecap="round" stroke-linejoin="round" stroke-miterlimit="10" stroke-width="10"/>
      <path id="Path_39" data-name="Path 39" d="M51.146,33.381c.31.06.5.239.823.239a2.722,2.722,0,0,1,.895.215,2.8,2.8,0,0,1,1,.608,10.367,10.367,0,0,1,.787.835c.227.262.537.465.763.74a10.142,10.142,0,0,1,1.789,3.137c.155.429.334.859.513,1.276.2.489.823.954.883,1.479" transform="translate(170.336 188.13)" fill="none" stroke="#fff" stroke-linecap="round" stroke-linejoin="round" stroke-miterlimit="10" stroke-width="10"/>
      <path id="Path_40" data-name="Path 40" d="M57.664,27.042c.429,0,.859-.036,1.276-.012a5.056,5.056,0,0,1,1.109.286A6.713,6.713,0,0,1,62.6,28.939c.93.883,2.171,1.252,3.185,2.04a8.264,8.264,0,0,1,1.443,1.443,5.129,5.129,0,0,0,.656.692c.239.227.608.68.918.763" transform="translate(241.565 118.641)" fill="none" stroke="#fff" stroke-linecap="round" stroke-linejoin="round" stroke-miterlimit="10" stroke-width="10"/>
      <path id="Path_41" data-name="Path 41" d="M58.051,26.805c.167-.048.489.107.632.155.274.084.537.2.8.274a4.6,4.6,0,0,1,.966.322c.274.143.5.346.775.477,1.515.692,2.4,2.183,3.435,3.447a23.056,23.056,0,0,1,1.61,1.992c.1.155.251.215.382.358a6.793,6.793,0,0,1,.394.62,2.754,2.754,0,0,1,.37.465c.084.167.048.37.119.537a3.163,3.163,0,0,1,.406,1,1.866,1.866,0,0,1-.644,1.408c-.537.465-.99.072-1.539-.155a8.627,8.627,0,0,1-.835-.31,7.257,7.257,0,0,1-.656-.573" transform="translate(245.794 116.17)" fill="none" stroke="#fff" stroke-linecap="round" stroke-linejoin="round" stroke-miterlimit="10" stroke-width="10"/>
      <path id="Path_42" data-name="Path 42" d="M58.037,29.351c-.465.155-.37-.68-.322-.954a1.769,1.769,0,0,1,.883-1.121,6.545,6.545,0,0,1,3.423-.465" transform="translate(241.669 116.165)" fill="none" stroke="#fff" stroke-linecap="round" stroke-linejoin="round" stroke-miterlimit="10" stroke-width="10"/>
      <path id="Path_43" data-name="Path 43" d="M44.734,25.792c.513.107.632.573.883.966a6.3,6.3,0,0,0,1.062,1.121c.382.418.6,1.014.954,1.467a15.278,15.278,0,0,1,1.431,1.932c.3.549.5,1.085.835,1.622.37.573.859,1.038,1.229,1.61.3.453.394,1,.692,1.455A13.5,13.5,0,0,0,53.477,37.9c1.217,1.109,2.064,2.529,3.209,3.722A40.877,40.877,0,0,1,60.229,45.4c.978,1.348,1.944,2.66,2.9,4.032,1.3,1.9,2.72,3.805,4.151,5.606,2.517,3.2,4.7,6.632,7.24,9.841.668.835,1.229,1.8,1.932,2.576.608.68,1.348,1.241,1.956,1.944a26.133,26.133,0,0,1,3.066,4.759A25.369,25.369,0,0,0,84.932,78.9c.728.8,1.4,1.67,2.087,2.5,1.109,1.348,2.469,2.433,3.555,3.817.644.823,1.026,1.789,1.61,2.66.549.8,1.288,1.4,1.8,2.207.525.835.93,1.73,1.431,2.565a14.64,14.64,0,0,0,1.109,1.312c.513.656.942,1.384,1.467,2.052,1.384,1.753,3.018,3.256,4.425,4.974.728.883,1.36,1.873,2.135,2.72.847.918,1.455,1.92,2.254,2.887.692.871,1.515,1.586,2.195,2.445s1.443,1.646,2.135,2.493a6.8,6.8,0,0,1,1.038,1.372,9.724,9.724,0,0,0,.692,1.634c.513.751,1.062,1.539,1.622,2.266a15.177,15.177,0,0,0,1.932,2.314" transform="translate(100.264 105.196)" fill="none" stroke="#fff" stroke-linecap="round" stroke-linejoin="round" stroke-miterlimit="10" stroke-width="10"/>
      <path id="Path_44" data-name="Path 44" d="M45.059,25.657a62,62,0,0,0,4.2,5.165,14.914,14.914,0,0,1,1.61,2.254A41.868,41.868,0,0,0,53.922,36.8c1.157,1.312,2.254,2.648,3.328,4.032,1.276,1.646,2.779,3.054,3.972,4.771.537.787,1.038,1.575,1.6,2.338S64.2,49.394,64.7,50.193c.358.584.632,1.252,1.026,1.849.632.99,1.264,1.944,1.932,2.91a46.264,46.264,0,0,0,3.781,5.165,53.96,53.96,0,0,1,5.415,6.823c1.252,1.944,2.66,3.793,4.068,5.63,1.157,1.527,2.517,2.97,3.519,4.58.918,1.479,2.481,2.588,3.316,4.115a19.242,19.242,0,0,0,1.193,2.111c.453.632,1.133,1.038,1.586,1.67.5.716.584,1.61,1.085,2.314a48.156,48.156,0,0,0,3.817,4.831c1.539,1.634,3.447,3.352,4.509,5.344a9.9,9.9,0,0,0,1.765,2.541,26.789,26.789,0,0,1,2.3,2.91c1.467,1.873,2.66,3.948,4.175,5.8.239.3.561.525.8.811a9.392,9.392,0,0,1,.954,1.646,25.111,25.111,0,0,0,2.087,2.421c.2.25.286.549.489.8.358.429.883.62,1.252,1.026a7.237,7.237,0,0,1,.692,1.157,10.5,10.5,0,0,0,1.813,1.67,4.267,4.267,0,0,0-1.145-.3" transform="translate(103.816 103.721)" fill="none" stroke="#fff" stroke-linecap="round" stroke-linejoin="round" stroke-miterlimit="10" stroke-width="10"/>
      <path id="Path_45" data-name="Path 45" d="M45.14,25.6c1.408.06,2.815.31,4.223.346a7.5,7.5,0,0,1,1.264-.036c.775.155,1.491.549,2.266.68a18.376,18.376,0,0,1,1.932.37,17.1,17.1,0,0,0,3.555.918,12.019,12.019,0,0,1,1.777.286c.489.083.978-.048,1.455.012.561.072,1.062.286,1.634.334a16.567,16.567,0,0,1,2.409.37c1.026.227,2.04.155,3.054.346,1.169.239,2.362.322,3.567.537,1.062.191,2.159.584,3.233.7a13.845,13.845,0,0,1,1.407.012,8.667,8.667,0,0,0,1.694.3,13.521,13.521,0,0,1,2.779.072,28.127,28.127,0,0,0,3.3.573c2.433.239,4.819.644,7.252.942a14.739,14.739,0,0,0,1.622.012,10.709,10.709,0,0,1,1.765.31,19.074,19.074,0,0,0,3.089.024c1.086,0,2.183-.048,3.268-.012.692.024,1.3.274,1.98.358a20.773,20.773,0,0,0,2.111-.024c.978,0,1.777.3,2.708.334,2.04.1,4.056.334,6.107.31,1.586-.012,3.089.346,4.676.322a26.123,26.123,0,0,1,4.616.573c.441.084.907,0,1.336.1a12.143,12.143,0,0,1,1.551.728,7.283,7.283,0,0,0,2.648.227,37.23,37.23,0,0,1,6.215.072c1.36.239,2.72.573,4.079.823.895.167,1.825-.048,2.708.143,2.433.525,4.891.775,7.348,1.181,1.586.262,3.173.513,4.759.763,1.634.262,3.28.441,4.9.728a35.056,35.056,0,0,0,6.131.167,10.47,10.47,0,0,1,2.29.072c.883.179,1.646.131,2.517.227a17.219,17.219,0,0,0,1.932.346c.632.024,1.276-.012,1.92-.012,1.384.012,2.708.334,4.127.334a21.4,21.4,0,0,1,4.282.239,21.084,21.084,0,0,0,2.1.417,17.338,17.338,0,0,1,1.932.06c1.252.274,2.517.513,3.793.74a9.851,9.851,0,0,1,1.944.477c.6.239,1.408.728,1.61-.322" transform="translate(104.701 103.12)" fill="none" stroke="#fff" stroke-linecap="round" stroke-linejoin="round" stroke-miterlimit="10" stroke-width="10"/>
      <path id="Path_46" data-name="Path 46" d="M45.005,25.727l.048-.274c.811-.286,1.2.131,1.873.286.346.084.787-.072,1.145-.024.453.048.835.274,1.288.346a3.773,3.773,0,0,1,.966.131,5.7,5.7,0,0,0,1.133.513c.99.179,2.075.143,3.077.334a17.62,17.62,0,0,0,2.743.632c.93.036,1.873-.012,2.8-.012a39.979,39.979,0,0,1,7.288.573,11.975,11.975,0,0,0,1.849.06c.728.036,1.372.31,2.1.358.584.036,1.193-.012,1.777-.024a16.811,16.811,0,0,1,2.195.346c1.074.107,2.123.274,3.221.3a31.641,31.641,0,0,1,3.805.632,20.841,20.841,0,0,0,2.732.024c1.288-.012,2.445.334,3.71.322a32.212,32.212,0,0,1,4.02.3,50.407,50.407,0,0,0,5.2.024c5.892,0,11.582,1.157,17.4,1.908a34.152,34.152,0,0,0,3.829.024c1.169.024,2.266.334,3.459.322a17.452,17.452,0,0,1,3.066.3c1.443.251,2.91-.012,4.366.286,1.217.239,2.493-.143,3.686.1,1.288.25,2.576.632,3.877.859,1.5.262,2.946.262,4.449.394,1.455.119,2.887.549,4.33.692.907.083,1.753.286,2.672.3.692.012,1.408-.06,2.1-.024.942.048,1.849.322,2.8.346s1.9-.06,2.851.024c1.932.155,3.889.608,5.821.608a22.291,22.291,0,0,1,4.056.573c1.443.31,2.982.072,4.449.334a25.633,25.633,0,0,0,4.282.072,13.673,13.673,0,0,1,2.421.024,12.181,12.181,0,0,0,2.577.3,14.76,14.76,0,0,1,4.509.811c2.732.763,5.654.751,8.4,1.479a28.274,28.274,0,0,1,2.91,1.217c.573.239,3.03,1.276,3.4.692" transform="translate(103.226 100.418)" fill="none" stroke="#fff" stroke-linecap="round" stroke-linejoin="round" stroke-miterlimit="10" stroke-width="10"/>
      <path id="Path_47" data-name="Path 47" d="M46.512,29.1a4.4,4.4,0,0,0,.286-.584c-.835-.31-1.527.346-2.052-.692-.441-.883.072-1.36.215-2.219l.262-.06" transform="translate(98.486 102.529)" fill="none" stroke="#fff" stroke-linecap="round" stroke-linejoin="round" stroke-miterlimit="10" stroke-width="10"/>
      <path id="Path_48" data-name="Path 48" d="M49.764,28.06l.262-.06a2.143,2.143,0,0,0-2.04-2.851,1.811,1.811,0,0,0-1.61.513c-.513.429-1.05,1.765-1.777,1.753" transform="translate(98.789 98.085)" fill="none" stroke="#fff" stroke-linecap="round" stroke-linejoin="round" stroke-miterlimit="10" stroke-width="10"/>
      <path id="Path_49" data-name="Path 49" d="M81,40.988a7.093,7.093,0,0,0-1.217-3.555c-.775-1.419-1.586-2.827-2.254-4.223-.775-1.61-2.887-2.529-4.354-3.28-2.04-1.038-3.769-2.612-5.881-3.495a12.775,12.775,0,0,0-1.479-.37,12.02,12.02,0,0,1-1.288-.68,17.772,17.772,0,0,0-2.708-.835,32.513,32.513,0,0,0-8.612-.68,8.721,8.721,0,0,0-3.149.227c-.966.382-1.9.644-2.851,1.074s-1.861.8-2.779,1.264c-1.145.573-1.956,1.873-3.161,1.956" transform="translate(62.387 83.868)" fill="none" stroke="#fff" stroke-linecap="round" stroke-linejoin="round" stroke-miterlimit="10" stroke-width="10"/>
      <path id="Path_50" data-name="Path 50" d="M41.133,24.682l.274.06a10.8,10.8,0,0,0,2.064,5.439,10.545,10.545,0,0,0,2.183,1.61,14.5,14.5,0,0,0,2.266,1.372c1.575.763,3.006,1.98,4.521,2.9a23.059,23.059,0,0,0,5.224,2.827c.716.215,1.431.179,2.135.322.62.107,1.157.465,1.765.584a18.777,18.777,0,0,0,2.815.382c.608.024,1.109.274,1.706.346a14.084,14.084,0,0,0,1.586-.012,16.4,16.4,0,0,0,3.34-.072A24.6,24.6,0,0,0,77.3,38.495a15.315,15.315,0,0,0,1.634-.883c.477-.334.74-.787,1.276-1.074a7.275,7.275,0,0,0,1.038-.811c.358-.25.811-.25.895-.716" transform="translate(60.912 93.066)" fill="none" stroke="#fff" stroke-linecap="round" stroke-linejoin="round" stroke-miterlimit="10" stroke-width="10"/>
      <path id="Path_51" data-name="Path 51" d="M133.94,56.159c-.3.072-.465-.167-.728-.227a8.777,8.777,0,0,1-.954-.143c-.632-.2-1.252-.322-1.885-.477-1.551-.382-3.173-.525-4.724-1.05-1.67-.549-3.256-1.336-4.938-1.825-1.121-.334-2.123-1.05-3.256-1.408a8.228,8.228,0,0,1-1.956-.537,11.816,11.816,0,0,0-1.622-.763c-.93-.406-1.825-.859-2.791-1.181-.763-.239-1.527-.513-2.278-.787-.573-.215-1.145-.358-1.73-.537-.7-.227-1.348-.608-2.04-.883-2.374-.966-4.867-1.753-7.312-2.565-.93-.322-1.777-.763-2.7-1.109-1.467-.561-2.982-1.038-4.461-1.586-1.646-.608-3.34-.835-4.95-1.515-1.825-.775-3.877-.978-5.761-1.575-2.481-.8-4.914-1.682-7.419-2.4-2.29-.656-4.449-1.646-6.727-2.326-3.2-.942-6.382-1.92-9.542-2.994-1.133-.394-2.242-.823-3.376-1.2-.966-.334-1.968-.489-2.922-.835-2.708-.966-5.427-1.873-8.087-2.946-1.694-.68-3.376-1.36-5.046-2.087-1.348-.6-2.636-1.312-3.984-1.9" transform="translate(-30.655 56.161)" fill="none" stroke="#fff" stroke-linecap="round" stroke-linejoin="round" stroke-miterlimit="10" stroke-width="10"/>
      <path id="Path_52" data-name="Path 52" d="M134.182,57.708a3.163,3.163,0,0,1-1.05-.322,2.1,2.1,0,0,0-.74-.1,6.331,6.331,0,0,1-1.992-.573c-.668-.3-1.372-.382-2.052-.632a16.689,16.689,0,0,0-2.612-.847c-2.672-.525-5.4-.8-8.1-1.36a37.207,37.207,0,0,1-3.6-.954c-1.419-.441-2.875-.787-4.258-1.3s-2.767-.942-4.175-1.348c-2.111-.608-4.175-1.408-6.286-2.04-1.014-.31-2.087-.358-3.125-.656-1.24-.358-2.481-.7-3.7-1.169-2.35-.883-4.8-1.467-7.157-2.35-.99-.37-2.016-.644-2.994-1.074-.716-.31-1.4-.692-2.123-1.014-1.73-.74-3.543-1.324-5.284-2-3.1-1.217-6.155-2.672-9.3-3.71-2.8-.93-5.451-2.326-8.29-3.125a48.043,48.043,0,0,1-7.777-3.1c-.5-.25-1.05-.37-1.563-.584-.477-.2-.907-.489-1.36-.728C46,28.4,45.2,28.294,44.59,27.912a37.353,37.353,0,0,0-4.354-2.493c-.728-.334-1.479-.632-2.195-.978-.585-.274-1.062-.68-1.67-.942a10.453,10.453,0,0,1-1.885-1.145,2.655,2.655,0,0,0-1.909-.751" transform="translate(-32.578 59.228)" fill="none" stroke="#fff" stroke-linecap="round" stroke-linejoin="round" stroke-miterlimit="10" stroke-width="10"/>
    </g>
  </g>
</svg>
