<svg id="Component_4_1" data-name="Component 4 – 1" xmlns="http://www.w3.org/2000/svg" width="145.931" height="32.118" viewBox="0 0 145.931 32.118">
  <g id="Component_1_1" data-name="Component 1 – 1" transform="translate(106.189)">
    <path id="Icon_awesome-github-alt" data-name="Icon awesome-github-alt" d="M14.781,25.524c0,1.66-.866,4.376-2.915,4.376s-2.915-2.716-2.915-4.376.866-4.376,2.915-4.376,2.915,2.716,2.915,4.376Zm23.343-4.011a17.214,17.214,0,0,1-1.39,7.545C33.724,35.143,25.448,35,19.523,35,13.5,35,4.734,35.214,1.6,29.059A17,17,0,0,1,0,21.513,13.659,13.659,0,0,1,3.3,12.49a12.433,12.433,0,0,1-.612-3.876A7.909,7.909,0,0,1,3.844,4.5a12.41,12.41,0,0,1,8.642,2.859,30.423,30.423,0,0,1,7.045-.794,27.4,27.4,0,0,1,6.386.731,12.275,12.275,0,0,1,8.562-2.8,7.835,7.835,0,0,1,1.16,4.114,12.259,12.259,0,0,1-.612,3.828,13.685,13.685,0,0,1,3.1,9.07Zm-5.107,4.011c0-3.487-2.121-6.561-5.838-6.561a32.657,32.657,0,0,0-4.448.477,23.338,23.338,0,0,1-3.582.254,23.481,23.481,0,0,1-3.582-.254,32.127,32.127,0,0,0-4.448-.477c-3.717,0-5.838,3.074-5.838,6.561,0,6.974,6.386,8.046,11.946,8.046h3.828c5.584,0,11.962-1.064,11.962-8.046Zm-6.561-4.376c-2.049,0-2.915,2.716-2.915,4.376s.866,4.376,2.915,4.376,2.915-2.716,2.915-4.376S28.506,21.148,26.457,21.148Z" transform="translate(1.617 -2.883)" fill="#8b8121"/>
    <path id="Icon_awesome-github-alt-2" data-name="Icon awesome-github-alt" d="M14.781,25.524c0,1.66-.866,4.376-2.915,4.376s-2.915-2.716-2.915-4.376.866-4.376,2.915-4.376,2.915,2.716,2.915,4.376Zm23.343-4.011a17.214,17.214,0,0,1-1.39,7.545C33.724,35.143,25.448,35,19.523,35,13.5,35,4.734,35.214,1.6,29.059A17,17,0,0,1,0,21.513,13.659,13.659,0,0,1,3.3,12.49a12.433,12.433,0,0,1-.612-3.876A7.909,7.909,0,0,1,3.844,4.5a12.41,12.41,0,0,1,8.642,2.859,30.423,30.423,0,0,1,7.045-.794,27.4,27.4,0,0,1,6.386.731,12.275,12.275,0,0,1,8.562-2.8,7.835,7.835,0,0,1,1.16,4.114,12.259,12.259,0,0,1-.612,3.828,13.685,13.685,0,0,1,3.1,9.07Zm-5.107,4.011c0-3.487-2.121-6.561-5.838-6.561a32.657,32.657,0,0,0-4.448.477,23.338,23.338,0,0,1-3.582.254,23.481,23.481,0,0,1-3.582-.254,32.127,32.127,0,0,0-4.448-.477c-3.717,0-5.838,3.074-5.838,6.561,0,6.974,6.386,8.046,11.946,8.046h3.828c5.584,0,11.962-1.064,11.962-8.046Zm-6.561-4.376c-2.049,0-2.915,2.716-2.915,4.376s.866,4.376,2.915,4.376,2.915-2.716,2.915-4.376S28.506,21.148,26.457,21.148Z" transform="translate(0 -4.5)" fill="#faf2a1"/>
  </g>
  <text id="View_Code_" data-name="View Code!" transform="translate(0 22.33)" fill="#faf2a1" font-size="18" font-family="FuturaPT-Bold, Futura PT" font-weight="700"><tspan x="0" y="0">View Code!</tspan></text>
</svg>
